<?xml version="1.0" encoding="UTF-8" standalone="no"?><!DOCTYPE svg PUBLIC "-//W3C//DTD SVG 1.1//EN" "http://www.w3.org/Graphics/SVG/1.1/DTD/svg11.dtd"><svg width="4000px" height="2500px" version="1.1" xmlns="http://www.w3.org/2000/svg" xmlns:xlink="http://www.w3.org/1999/xlink" xml:space="preserve" xmlns:serif="http://www.serif.com/" style="fill-rule:evenodd;clip-rule:evenodd;stroke-linejoin:round;stroke-miterlimit:2;"><g><g transform="matrix(0.640347,0,0,0.640347,2406.36,-534.777)"><g><g transform="matrix(1.56165,0,0,1.56165,-3757.24,834.803)"><rect x="111.817" y="218.725" width="3805.79" height="2107.56" style="fill:rgb(174,211,240);"/></g><g transform="matrix(1.56165,0,0,1.56165,-3757.9,835.135)"><path d="M347.26,2326.07L3918.03,2326.07L3918.03,2127.37C3895.76,2131.49 3873.68,2134.89 3851.88,2137.59C3710.53,2155.06 3567.25,2125.07 3426.41,2122.97C3285,2120.87 3141.37,2138.32 3000.76,2115.43C2651.21,2058.52 2310.24,1945.87 1961.09,1883.22C1701,1836.55 1424.47,1773.58 1159.17,1794.74C805.114,1822.98 486.766,2011.11 347.26,2326.07ZM3918.03,438.571L3918.03,218.512L301.657,218.512C433.287,450.099 832.678,674.536 1028.69,732.72C1174.51,776.004 1337.37,787.723 1486.67,761.113C1730.06,717.734 1990.69,702.542 2227.59,631.081C2490.89,551.655 2749.53,429.785 3021.48,381.242C3152.3,357.891 3290.01,363.01 3422.32,363.007C3611.47,363.001 3777.48,384.072 3918.03,438.571ZM113.823,218.512L112.235,219.844L112.235,218.512L113.823,218.512Z" style="fill:rgb(195,220,243);"/></g></g></g><g transform="matrix(1,0,0,1,0.418104,-0.212506)"><rect x="111.817" y="218.725" width="3805.79" height="2107.56" style="fill:none;"/><clipPath id="_clip1"><rect x="111.817" y="218.725" width="3805.79" height="2107.56"/></clipPath><g clip-path="url(#_clip1)"><g transform="matrix(1.73367,0.584288,-1.45287,1.02916,-914.1,-634.222)"><g transform="matrix(0.96757,5.55112e-17,-3.35182e-16,1.01905,584.779,63.4379)"><path d="M2496.63,784.319C2496.63,758.593 2474.64,737.708 2447.54,737.708L1534.66,737.708C1507.56,737.708 1485.57,758.593 1485.57,784.319L1485.57,1702.16C1485.57,1727.89 1507.56,1748.78 1534.66,1748.78L2447.54,1748.78C2474.64,1748.78 2496.63,1727.89 2496.63,1702.16L2496.63,784.319Z" style="fill-opacity:0.15;"/></g><g transform="matrix(0.0483411,-0.530979,0.497211,-0.0200415,826.594,1595.2)"><ellipse cx="990.062" cy="1545.18" rx="955.927" ry="225.711" style="fill-opacity:0.15;"/></g><g transform="matrix(-0.302525,-0.0283992,-0.0598751,0.378542,2122.82,-317.76)"><ellipse cx="990.062" cy="1545.18" rx="955.927" ry="225.711" style="fill-opacity:0.15;"/></g><g transform="matrix(0.96757,0,0,1.01905,523.649,82.6164)"><path d="M2491.15,730.399C2491.15,718.156 2483.06,708.717 2429.71,656.152C2396.13,623.071 2356.11,580.369 2353.24,584.949L1534.66,737.708C1507.56,737.708 1485.57,758.593 1485.57,784.319L1343.41,1598.95C1343.66,1605.6 1390.22,1652.56 1430.07,1695.26C1479.33,1748.06 1495.31,1762.48 1510.14,1762.35L2447.54,1748.78C2474.64,1748.78 2496.63,1727.89 2496.63,1702.16L2491.15,730.399Z" style="fill:rgb(248,195,216);"/></g><g transform="matrix(0.576517,-0.336339,0.883532,0.99797,218.108,301.905)"><path d="M2583.08,1319.44C2583.72,1325.3 2584.37,1331.02 2584.46,1337.1L1580.93,1991.91C1553.5,2009.82 1506.06,2015.87 1475.07,2005.43L404.775,1644.71C404.743,1638.13 404.872,1633.62 404.991,1627.48L1475.63,1988.31C1505.61,1998.42 1551.51,1992.56 1578.06,1975.24L2583.08,1319.44ZM1590.82,1288.6C1781.09,1263.33 1973.49,1254.58 2165.37,1264.75C2169.05,1264.95 2172.85,1265.13 2176.77,1265.31L1720.8,1406.65C1677.39,1420.11 1627.05,1421.08 1591.65,1409.15C1556.24,1397.21 1542.16,1374.53 1555.52,1350.94L1590.82,1288.6Z" style="fill:rgb(243,156,190);"/></g><g transform="matrix(0.96757,0,0,1.01905,394.506,-63.2545)"><path d="M2496.63,784.319C2496.63,758.593 2474.64,737.708 2447.54,737.708L1534.66,737.708C1507.56,737.708 1485.57,758.593 1485.57,784.319L1485.57,1702.16C1485.57,1727.89 1507.56,1748.78 1534.66,1748.78L2447.54,1748.78C2474.64,1748.78 2496.63,1727.89 2496.63,1702.16L2496.63,784.319Z" style="fill:rgb(236,97,152);"/></g><g transform="matrix(0.96757,0,0,1.01905,394.506,-63.2545)"><path d="M2496.63,784.319C2496.63,758.593 2474.64,737.708 2447.54,737.708L1534.66,737.708C1507.56,737.708 1485.57,758.593 1485.57,784.319L1485.57,1702.16C1485.57,1727.89 1507.56,1748.78 1534.66,1748.78L2447.54,1748.78C2474.64,1748.78 2496.63,1727.89 2496.63,1702.16L2496.63,784.319Z" style="fill:url(#_Linear2);"/></g><g transform="matrix(0.576517,-0.336339,0.883532,0.99797,218.108,301.905)"><path d="M2189.44,1150.26L1700.46,1036.73C1713.71,1015.62 1718.77,997.021 1700.43,985.632L1517.53,923.806C1487.54,913.701 1441.65,919.56 1415.1,936.882L467.961,1554.9C460.411,1559.83 455.234,1565.16 452.381,1570.49C435.257,1559.08 437.093,1541.31 459.111,1526.94L1406.25,908.92C1432.8,891.598 1478.69,885.739 1508.68,895.845L2518.97,1236.34C2540.42,1243.57 2547.95,1257.03 2540.77,1270.44C2537.26,1268.1 2532.93,1266.02 2527.82,1264.3C2527.82,1264.3 2418.95,1227.94 2350.04,1204.92C2314.17,1192.94 2274.76,1192.33 2237.39,1203.17C2106.35,1241.25 1788.83,1333.36 1689.4,1360.76C1623.02,1379.05 1528.91,1354.55 1548.75,1298.04C1568.58,1241.53 1700.36,1172.07 1700.36,1172.07L2189.44,1150.26Z" style="fill:rgb(205,52,113);"/></g><path d="M2826.57,720.329C2826.57,693.235 2804.57,671.238 2777.48,671.238L1864.59,671.238C1837.5,671.238 1815.5,693.235 1815.5,720.329L1815.5,1687.01C1815.5,1714.1 1837.5,1736.1 1864.59,1736.1L2777.48,1736.1C2804.57,1736.1 2826.57,1714.1 2826.57,1687.01L2826.57,720.329ZM2562.31,688.504L2390.11,1055.89C2376.97,1083.92 2348.81,1101.82 2317.85,1101.82C2286.9,1101.82 2258.74,1083.92 2245.6,1055.89L2073.39,688.504L1879.39,688.504C1853.18,688.504 1831.89,709.788 1831.89,736.003L1831.89,1671.33C1831.89,1697.55 1853.18,1718.83 1879.39,1718.83L2762.67,1718.83C2788.89,1718.83 2810.17,1697.55 2810.17,1671.33L2810.17,736.003C2810.17,709.788 2788.89,688.504 2762.67,688.504L2562.31,688.504Z" style="fill:rgb(243,156,190);"/><path d="M2826.57,720.329C2826.57,693.235 2804.57,671.238 2777.48,671.238L1864.59,671.238C1837.5,671.238 1815.5,693.235 1815.5,720.329L1815.5,1687.01C1815.5,1714.1 1837.5,1736.1 1864.59,1736.1L2777.48,1736.1C2804.57,1736.1 2826.57,1714.1 2826.57,1687.01L2826.57,720.329ZM2633.17,688.504C2587.18,688.504 2553.38,707.562 2536.86,742.788C2488.95,845.01 2390.11,1055.89 2390.11,1055.89C2376.97,1083.92 2348.81,1101.82 2317.85,1101.82C2286.9,1101.82 2258.74,1083.92 2245.6,1055.89C2245.6,1055.89 2141.22,833.212 2094.99,734.581C2089.54,722.948 2080.03,711.216 2068.88,702.391C2057.74,693.565 2046.06,688.504 2036.83,688.504C1980.62,688.504 1879.39,688.504 1879.39,688.504C1853.18,688.504 1831.89,709.788 1831.89,736.003L1831.89,1671.33C1831.89,1697.55 1853.18,1718.83 1879.39,1718.83L2762.67,1718.83C2788.89,1718.83 2810.17,1697.55 2810.17,1671.33L2810.17,736.003C2810.17,709.788 2788.89,688.504 2762.67,688.504L2633.17,688.504Z" style="fill:url(#_Linear3);"/><g transform="matrix(0.894813,0,0,0.894813,247.321,100.665)"><path d="M2113.83,723.972L2198.33,903.36C2276.74,860.428 2355.44,859.448 2434.5,906.519L2518.76,728.243C2385.78,676.733 2250.8,675.26 2113.83,723.972Z" style="fill:rgb(243,156,190);"/></g><g transform="matrix(0.42603,-0.241871,0.601425,0.717668,739.459,389.564)"><path d="M1666.51,1281.27L1754.2,1101.48C1998.87,1125.22 2184.92,1187.69 2312.52,1288.81L2318.49,1286.83C2190.67,1179.53 2000.33,1113.54 1747.28,1088.99L1653.59,1281.09C1657.94,1281.12 1662.25,1281.18 1666.51,1281.27Z" style="fill:rgb(208,89,136);"/></g><g transform="matrix(1,0,0,1,-0.0013624,4.13093)"><path d="M2175.49,772.138L2167.49,755.058C2166.58,753.121 2164.28,752.285 2162.34,753.192C2160.4,754.099 2159.57,756.408 2160.47,758.345L2168.47,775.425C2169.38,777.362 2171.69,778.198 2173.62,777.291C2175.56,776.384 2176.4,774.075 2175.49,772.138ZM2471.85,771.635L2480.19,754.721C2481.14,752.803 2480.35,750.478 2478.43,749.531C2476.52,748.585 2474.19,749.373 2473.24,751.291L2464.9,768.205C2463.95,770.123 2464.74,772.448 2466.66,773.395C2468.57,774.341 2470.9,773.553 2471.85,771.635ZM2453.58,762.525L2456.18,754.358C2456.83,752.321 2455.71,750.138 2453.67,749.488C2451.63,748.838 2449.45,749.964 2448.8,752.001L2446.19,760.168C2445.54,762.206 2446.67,764.388 2448.71,765.038C2450.74,765.688 2452.93,764.562 2453.58,762.525ZM2196.03,758L2192.6,747.798C2191.92,745.771 2189.72,744.679 2187.69,745.361C2185.66,746.044 2184.57,748.243 2185.25,750.27L2188.69,760.472C2189.37,762.499 2191.57,763.591 2193.6,762.908C2195.62,762.226 2196.71,760.027 2196.03,758ZM2431.14,756.25L2433.1,747.919C2433.59,745.837 2432.29,743.75 2430.21,743.262C2428.13,742.773 2426.04,744.067 2425.55,746.149L2423.6,754.48C2423.11,756.562 2424.41,758.649 2426.49,759.137C2428.57,759.626 2430.66,758.332 2431.14,756.25ZM2404.21,755.38L2408.94,736.823C2409.47,734.751 2408.22,732.639 2406.14,732.111C2404.07,731.583 2401.96,732.837 2401.43,734.909L2396.7,753.466C2396.18,755.538 2397.43,757.65 2399.5,758.178C2401.57,758.706 2403.68,757.452 2404.21,755.38ZM2248.36,751.535L2242.52,732.558C2241.89,730.515 2239.72,729.366 2237.67,729.996C2235.63,730.626 2234.48,732.796 2235.11,734.84L2240.96,753.816C2241.59,755.86 2243.76,757.009 2245.8,756.379C2247.84,755.749 2248.99,753.579 2248.36,751.535ZM2221.51,749.94L2217.46,739.914C2216.66,737.931 2214.4,736.972 2212.42,737.774C2210.43,738.576 2209.47,740.836 2210.28,742.819L2214.33,752.845C2215.13,754.828 2217.39,755.786 2219.38,754.985C2221.36,754.183 2222.32,751.923 2221.51,749.94ZM2331.12,746.648L2331.25,727.787C2331.26,725.648 2329.54,723.9 2327.4,723.885C2325.26,723.87 2323.51,725.594 2323.5,727.733L2323.37,746.594C2323.35,748.732 2325.08,750.481 2327.21,750.496C2329.35,750.51 2331.1,748.786 2331.12,746.648ZM2383.86,746.063L2385.29,737.371C2385.63,735.26 2384.2,733.266 2382.09,732.92C2379.98,732.574 2377.98,734.007 2377.64,736.118L2376.22,744.811C2375.87,746.921 2377.3,748.915 2379.41,749.261C2381.52,749.607 2383.52,748.174 2383.86,746.063ZM2359.77,742.602L2361.2,733.909C2361.54,731.799 2360.11,729.804 2358,729.459C2355.89,729.113 2353.89,730.546 2353.55,732.656L2352.12,741.349C2351.78,743.46 2353.21,745.454 2355.32,745.8C2357.43,746.145 2359.43,744.712 2359.77,742.602ZM2277.37,739.937L2274.6,730.369C2274,728.315 2271.85,727.13 2269.8,727.725C2267.74,728.32 2266.56,730.471 2267.15,732.525L2269.92,742.093C2270.52,744.147 2272.67,745.332 2274.72,744.737C2276.78,744.142 2277.96,741.991 2277.37,739.937ZM2301.96,738.378L2300.77,729.458C2300.48,727.338 2298.53,725.847 2296.41,726.129C2294.29,726.412 2292.8,728.362 2293.09,730.482L2294.27,739.402C2294.56,741.522 2296.51,743.014 2298.63,742.731C2300.75,742.449 2302.24,740.498 2301.96,738.378Z" style="fill:rgb(64,103,177);"/></g><path d="M2316.32,849.707C2315.38,851.024 2315.06,852.683 2315.44,854.255C2315.82,855.827 2316.86,857.157 2318.3,857.9C2323.27,860.473 2330.44,864.184 2335.43,866.769C2336.88,867.519 2338.59,867.598 2340.1,866.985C2341.61,866.372 2342.78,865.128 2343.29,863.581C2347.31,851.559 2367.62,800.501 2375.19,777.833C2376.06,775.211 2374.89,772.343 2372.43,771.09C2369.96,769.837 2366.95,770.575 2365.35,772.827C2351.49,792.281 2323.62,839.448 2316.32,849.707Z" style="fill:rgb(64,103,177);"/><g transform="matrix(1,0,0,1,21.2369,-31.4005)"><path d="M2301.25,971.778C2306.05,971.778 2301.16,963.16 2305.14,965.238C2314.37,970.051 2329.12,988.409 2329.12,999.53C2329.12,1015.45 2313.87,1029.49 2297.94,1029.49C2287.59,1029.49 2272.06,1013.76 2266.97,1005.56C2264.24,1001.15 2272.41,1006.19 2272.41,1000.62C2272.41,984.703 2285.33,971.778 2301.25,971.778Z" style="fill:rgb(47,75,130);"/></g><g transform="matrix(1,0,0,1,9.76406,-43.2451)"><circle cx="2301.25" cy="1000.62" r="28.846" style="fill:rgb(64,103,177);"/></g><g transform="matrix(0.263735,0,0,0.263735,1495.31,434.236)"><circle cx="2301.25" cy="1000.62" r="28.846" style="fill:white;"/></g><g transform="matrix(0.263735,0,0,0.263735,1910.22,435.065)"><circle cx="2301.25" cy="1000.62" r="28.846" style="fill:white;"/></g><g transform="matrix(0.42603,-0.241871,0.601425,0.717668,740.251,390.642)"><path d="M1706.2,1377.58C1706.2,1377.58 1719.55,1393.44 1747.74,1387.74C1775.5,1382.13 1781.4,1364.26 1781.4,1364.26C1781.4,1364.26 1764.89,1333.83 1735.56,1340.63C1705.02,1347.72 1706.2,1377.58 1706.2,1377.58Z" style="fill:rgb(47,75,130);"/></g><path d="M2409.98,725.825C2440.48,731.752 2470.87,740.58 2501.14,752.306L2492.9,769.732C2442.05,805.897 2390.87,842.697 2341.96,881.695C2299.34,876.276 2256.83,885.781 2214.42,909.003L2209.34,898.237C2273.35,837.987 2340.2,779.704 2409.98,725.825ZM2253.97,720.673C2277.57,717.693 2301.1,716.406 2324.57,716.811C2275.89,757.928 2229.05,800.994 2185.6,847.821L2166.01,806.244C2166.94,805.295 2167.82,804.395 2168.63,803.549C2196.3,774.837 2224.54,747.09 2253.97,720.673Z" style="fill:url(#_Linear4);"/><g transform="matrix(1.08067,0,0,1.08067,-217.327,-59.7815)"><path d="M2610.33,1110.17C2566.53,1100.22 2536.64,1111.82 2522.64,1123.5C2494.1,1147.34 2483.56,1169.63 2486.13,1206.11C2489.3,1251.05 2537.62,1276.41 2545.88,1313.15C2552.79,1343.86 2549.42,1378.27 2538.18,1407.61C2519.11,1457.37 2456.36,1528.72 2553.44,1548.92C2615.39,1561.8 2663.03,1475.4 2676.48,1433.88C2698.41,1366.14 2729.16,1201.35 2672.47,1143.29C2656.14,1126.57 2633.73,1115.49 2610.33,1110.17ZM2710.02,1083.73C2717.04,1086.48 2719.69,1096.48 2715.94,1106.06C2712.19,1115.64 2703.45,1121.18 2696.44,1118.44C2689.42,1115.69 2686.77,1105.69 2690.52,1096.11C2694.27,1086.53 2703.01,1080.99 2710.02,1083.73ZM2479.01,1037.16C2491.79,1033.83 2506.05,1046.06 2510.85,1064.46C2515.64,1082.85 2509.16,1100.49 2496.39,1103.82C2483.62,1107.15 2469.35,1094.92 2464.56,1076.53C2459.76,1058.13 2466.24,1040.5 2479.01,1037.16ZM2675.31,1049.13C2684.53,1052.1 2688.77,1064.56 2684.78,1076.93C2680.79,1089.3 2670.07,1096.94 2660.86,1093.97C2651.65,1091 2647.4,1078.54 2651.39,1066.17C2655.38,1053.79 2666.1,1046.16 2675.31,1049.13ZM2615.37,1037.28C2625.05,1037.31 2632.87,1047.89 2632.82,1060.89C2632.78,1073.89 2624.88,1084.42 2615.2,1084.39C2605.52,1084.36 2597.7,1073.77 2597.74,1060.77C2597.79,1047.77 2605.68,1037.25 2615.37,1037.28ZM2556.28,1034.22C2565.96,1034.25 2573.78,1044.83 2573.74,1057.83C2573.69,1070.83 2565.8,1081.36 2556.12,1081.33C2546.44,1081.3 2538.61,1070.71 2538.66,1057.71C2538.7,1044.71 2546.6,1034.19 2556.28,1034.22Z" style="fill:rgb(243,156,190);"/></g><g transform="matrix(-1.08067,0,0,1.08067,4855.58,-59.7815)"><path d="M2610.33,1110.17C2566.53,1100.22 2536.64,1111.82 2522.64,1123.5C2494.1,1147.34 2483.56,1169.63 2486.13,1206.11C2489.3,1251.05 2537.62,1276.41 2545.88,1313.15C2552.79,1343.86 2549.42,1378.27 2538.18,1407.61C2519.11,1457.37 2456.36,1528.72 2553.44,1548.92C2615.39,1561.8 2663.03,1475.4 2676.48,1433.88C2698.41,1366.14 2729.16,1201.35 2672.47,1143.29C2656.14,1126.57 2633.73,1115.49 2610.33,1110.17ZM2710.02,1083.73C2717.04,1086.48 2719.69,1096.48 2715.94,1106.06C2712.19,1115.64 2703.45,1121.18 2696.44,1118.44C2689.42,1115.69 2686.77,1105.69 2690.52,1096.11C2694.27,1086.53 2703.01,1080.99 2710.02,1083.73ZM2479.01,1037.16C2491.79,1033.83 2506.05,1046.06 2510.85,1064.46C2515.64,1082.85 2509.16,1100.49 2496.39,1103.82C2483.62,1107.15 2469.35,1094.92 2464.56,1076.53C2459.76,1058.13 2466.24,1040.5 2479.01,1037.16ZM2675.31,1049.13C2684.53,1052.1 2688.77,1064.56 2684.78,1076.93C2680.79,1089.3 2670.07,1096.94 2660.86,1093.97C2651.65,1091 2647.4,1078.54 2651.39,1066.17C2655.38,1053.79 2666.1,1046.16 2675.31,1049.13ZM2615.37,1037.28C2625.05,1037.31 2632.87,1047.89 2632.82,1060.89C2632.78,1073.89 2624.88,1084.42 2615.2,1084.39C2605.52,1084.36 2597.7,1073.77 2597.74,1060.77C2597.79,1047.77 2605.68,1037.25 2615.37,1037.28ZM2556.28,1034.22C2565.96,1034.25 2573.78,1044.83 2573.74,1057.83C2573.69,1070.83 2565.8,1081.36 2556.12,1081.33C2546.44,1081.3 2538.61,1070.71 2538.66,1057.71C2538.7,1044.71 2546.6,1034.19 2556.28,1034.22Z" style="fill:rgb(243,156,190);"/></g></g><g transform="matrix(-0.48695,0.12367,0.107197,0.491134,2307.97,-289.997)"><g transform="matrix(0.836385,-0.434757,0.434757,0.836385,730.969,82.5158)"><g transform="matrix(1.14649,-0.0945354,0.0821774,0.996618,-325.798,117.381)"><path d="M1267.54,641.055C1439.88,641.055 1563.33,857.925 1563.33,1142.21C1563.33,1332.44 1501.23,1514.47 1383.34,1613.73C1325.04,1662.82 1224.38,1691.25 1167.36,1691.25C1147.75,1691.25 1212.27,1654.32 1193.66,1648.61C1048.71,1604.09 938.825,1394.15 938.825,1142.21C938.825,905.304 951.154,734.751 1083.28,674.745C1109.7,662.744 1238.82,641.055 1267.54,641.055Z" style="fill:rgb(211,168,105);"/></g><g transform="matrix(1.14649,-0.0945354,0.0821774,0.996618,-439.573,163.526)"><ellipse cx="1251.08" cy="1142.21" rx="312.25" ry="515.096" style="fill:rgb(235,208,99);"/></g><g transform="matrix(1.14649,-0.0945354,0.0821774,0.996618,-439.573,163.526)"><ellipse cx="1251.08" cy="1142.21" rx="312.25" ry="515.096" style="fill:url(#_Linear5);"/></g><g transform="matrix(0.887288,0.461216,-0.461216,0.887288,-558.404,-332.678)"><path d="M1977.85,923.088L2077.74,562.975L2185.92,638L2095.29,1007.72C2054.79,985.681 2015.15,957.263 1977.85,923.088Z" style="fill:url(#_Linear6);"/></g></g><g transform="matrix(0.81359,-0.581439,0.961546,1.34546,-1885.57,241.007)"><path d="M3075.44,1521.91L1973.45,1521.91L1973.45,1630.72L3075.44,1630.72C3137.75,1588.15 3135.67,1551.97 3075.44,1521.91Z" style="fill:rgb(58,85,145);"/></g><g transform="matrix(0.887288,-0.461216,0.461216,0.887288,-301.373,672.843)"><g transform="matrix(1.14649,-0.0945354,0.0821774,0.996618,-325.798,117.381)"><path d="M1267.54,641.055C1439.88,641.055 1563.33,857.925 1563.33,1142.21C1563.33,1332.44 1501.23,1514.47 1383.34,1613.73C1325.04,1662.82 1224.38,1691.25 1167.36,1691.25C1147.75,1691.25 1212.27,1654.32 1193.66,1648.61C1048.71,1604.09 938.825,1394.15 938.825,1142.21C938.825,905.304 951.154,734.751 1083.28,674.745C1109.7,662.744 1238.82,641.055 1267.54,641.055Z" style="fill:rgb(211,168,105);"/></g><g transform="matrix(1.14649,-0.0945354,0.0821774,0.996618,-439.573,163.526)"><ellipse cx="1251.08" cy="1142.21" rx="312.25" ry="515.096" style="fill:rgb(235,208,99);"/></g><g transform="matrix(1.14649,-0.0945354,0.0821774,0.996618,-439.573,163.526)"><ellipse cx="1251.08" cy="1142.21" rx="312.25" ry="515.096" style="fill:url(#_Linear7);"/></g></g><g transform="matrix(0.565924,-0.29417,0.29417,0.565924,187.196,921.345)"><g transform="matrix(1.14649,-0.0945354,0.0821774,0.996618,-325.798,117.381)"><path d="M1267.54,641.055C1439.88,641.055 1563.33,857.925 1563.33,1142.21C1563.33,1332.44 1501.23,1514.47 1383.34,1613.73C1325.04,1662.82 1224.38,1691.25 1167.36,1691.25C1147.75,1691.25 1212.27,1654.32 1193.66,1648.61C1048.71,1604.09 938.825,1394.15 938.825,1142.21C938.825,905.304 951.154,734.751 1083.28,674.745C1109.7,662.744 1238.82,641.055 1267.54,641.055Z" style="fill:rgb(211,168,105);"/></g><g transform="matrix(1.14649,-0.0945354,0.0821774,0.996618,-439.573,163.526)"><ellipse cx="1251.08" cy="1142.21" rx="312.25" ry="515.096" style="fill:rgb(235,208,99);"/></g></g><g transform="matrix(0.671104,0.223734,-0.0105255,0.742184,305.056,-155.543)"><path d="M1326.81,1367.4C1341.35,1342.22 1373.56,1333.59 1398.75,1348.13C1399.1,1348.33 1399.45,1348.54 1399.81,1348.74C1425,1363.28 1433.62,1395.49 1419.08,1420.68C1419.08,1420.68 1419.08,1420.68 1419.08,1420.68C1409.46,1437.35 1409.46,1457.88 1419.08,1474.54C1428.7,1491.21 1446.49,1501.47 1465.73,1501.47L1465.73,1501.47C1494.81,1501.47 1518.39,1525.05 1518.39,1554.13L1518.39,1555.36C1518.39,1584.44 1506.33,1580.92 1479.81,1610.04C1459.93,1631.85 1438.03,1650.65 1438.03,1650.65C1418.79,1650.65 1428.7,1618.29 1419.08,1634.95C1409.46,1651.62 1409.46,1672.15 1419.08,1688.81C1419.08,1688.81 1419.08,1688.81 1419.08,1688.81C1433.62,1714 1425,1746.21 1399.81,1760.75C1399.45,1760.95 1399.1,1761.16 1398.75,1761.36C1392.27,1765.1 1342.99,1817.92 1336.01,1818.71C1315.83,1820.99 1337.62,1760.8 1326.81,1742.09C1326.81,1742.09 1326.81,1742.09 1326.81,1742.09C1317.19,1725.42 1299.41,1715.15 1280.16,1715.15C1260.92,1715.15 1243.14,1725.42 1233.52,1742.09C1233.52,1742.09 1233.52,1742.09 1233.52,1742.09C1218.98,1767.27 1186.77,1775.9 1161.58,1761.36C1161.23,1761.16 1160.87,1760.95 1160.52,1760.75C1135.33,1746.21 1126.7,1714 1141.25,1688.81C1141.25,1688.81 1141.25,1688.81 1141.25,1688.81C1150.87,1672.15 1150.87,1651.62 1141.25,1634.95C1131.62,1618.29 1113.84,1608.02 1094.6,1608.02L1094.6,1608.02C1065.52,1608.02 1027.15,1614.35 1027.15,1585.27C1027.15,1584.86 1027.15,1584.45 1027.15,1584.04C1027.15,1577.07 984.687,1592.03 987.143,1585.94C994.944,1566.62 1072.48,1501.47 1094.6,1501.47L1094.6,1501.47C1113.84,1501.47 1131.62,1491.21 1141.25,1474.54C1150.87,1457.88 1150.87,1437.35 1141.25,1420.68C1141.25,1420.68 1141.25,1420.68 1141.25,1420.68C1130.96,1402.87 1074.95,1434.67 1085.49,1418.57C1089.86,1411.89 1153.14,1353 1160.52,1348.74C1160.87,1348.54 1161.23,1348.33 1161.58,1348.13C1186.77,1333.59 1218.98,1342.22 1233.52,1367.4C1233.52,1367.4 1233.52,1367.41 1233.52,1367.41C1243.14,1384.07 1260.92,1394.34 1280.16,1394.34C1299.41,1394.34 1317.19,1384.07 1326.81,1367.41C1326.81,1367.41 1326.81,1367.4 1326.81,1367.4Z" style="fill:rgb(142,187,229);"/></g><g transform="matrix(0.671104,0.223734,-0.0105255,0.742184,305.056,-155.543)"><path d="M1326.81,1367.4C1341.35,1342.22 1373.56,1333.59 1398.75,1348.13C1399.1,1348.33 1399.45,1348.54 1399.81,1348.74C1425,1363.28 1433.62,1395.49 1419.08,1420.68C1419.08,1420.68 1419.08,1420.68 1419.08,1420.68C1409.46,1437.35 1409.46,1457.88 1419.08,1474.54C1428.7,1491.21 1446.49,1501.47 1465.73,1501.47L1465.73,1501.47C1494.81,1501.47 1518.39,1525.05 1518.39,1554.13L1518.39,1555.36C1518.39,1584.44 1506.33,1580.92 1479.81,1610.04C1459.93,1631.85 1438.03,1650.65 1438.03,1650.65C1418.79,1650.65 1428.7,1618.29 1419.08,1634.95C1409.46,1651.62 1409.46,1672.15 1419.08,1688.81C1419.08,1688.81 1419.08,1688.81 1419.08,1688.81C1433.62,1714 1425,1746.21 1399.81,1760.75C1399.45,1760.95 1399.1,1761.16 1398.75,1761.36C1392.27,1765.1 1342.99,1817.92 1336.01,1818.71C1315.83,1820.99 1337.62,1760.8 1326.81,1742.09C1326.81,1742.09 1326.81,1742.09 1326.81,1742.09C1317.19,1725.42 1299.41,1715.15 1280.16,1715.15C1260.92,1715.15 1243.14,1725.42 1233.52,1742.09C1233.52,1742.09 1233.52,1742.09 1233.52,1742.09C1218.98,1767.27 1186.77,1775.9 1161.58,1761.36C1161.23,1761.16 1160.87,1760.95 1160.52,1760.75C1135.33,1746.21 1126.7,1714 1141.25,1688.81C1141.25,1688.81 1141.25,1688.81 1141.25,1688.81C1150.87,1672.15 1150.87,1651.62 1141.25,1634.95C1131.62,1618.29 1113.84,1608.02 1094.6,1608.02L1094.6,1608.02C1065.52,1608.02 1027.15,1614.35 1027.15,1585.27C1027.15,1584.86 1027.15,1584.45 1027.15,1584.04C1027.15,1577.07 984.687,1592.03 987.143,1585.94C994.944,1566.62 1072.48,1501.47 1094.6,1501.47L1094.6,1501.47C1113.84,1501.47 1131.62,1491.21 1141.25,1474.54C1150.87,1457.88 1150.87,1437.35 1141.25,1420.68C1141.25,1420.68 1141.25,1420.68 1141.25,1420.68C1130.96,1402.87 1074.95,1434.67 1085.49,1418.57C1089.86,1411.89 1153.14,1353 1160.52,1348.74C1160.87,1348.54 1161.23,1348.33 1161.58,1348.13C1186.77,1333.59 1218.98,1342.22 1233.52,1367.4C1233.52,1367.4 1233.52,1367.41 1233.52,1367.41C1243.14,1384.07 1260.92,1394.34 1280.16,1394.34C1299.41,1394.34 1317.19,1384.07 1326.81,1367.41C1326.81,1367.41 1326.81,1367.4 1326.81,1367.4Z" style="fill:url(#_Linear8);"/></g><g transform="matrix(0.671104,0.223734,-0.0105255,0.742184,259.973,-125.998)"><path d="M1326.81,1367.4C1341.35,1342.22 1373.56,1333.59 1398.75,1348.13C1399.1,1348.33 1399.45,1348.54 1399.81,1348.74C1425,1363.28 1433.62,1395.49 1419.08,1420.68C1419.08,1420.68 1419.08,1420.68 1419.08,1420.68C1409.46,1437.35 1409.46,1457.88 1419.08,1474.54C1428.7,1491.21 1446.49,1501.47 1465.73,1501.47L1465.73,1501.47C1494.81,1501.47 1518.39,1525.05 1518.39,1554.13L1518.39,1555.36C1518.39,1584.44 1494.81,1608.02 1465.73,1608.02C1465.73,1608.02 1465.73,1608.02 1465.73,1608.02C1446.49,1608.02 1428.7,1618.29 1419.08,1634.95C1409.46,1651.62 1409.46,1672.15 1419.08,1688.81C1419.08,1688.81 1419.08,1688.81 1419.08,1688.81C1433.62,1714 1425,1746.21 1399.81,1760.75C1399.45,1760.95 1399.1,1761.16 1398.75,1761.36C1373.56,1775.9 1341.35,1767.27 1326.81,1742.09C1326.81,1742.09 1326.81,1742.09 1326.81,1742.09C1317.19,1725.42 1299.41,1715.15 1280.16,1715.15C1260.92,1715.15 1243.14,1725.42 1233.52,1742.09C1233.52,1742.09 1233.52,1742.09 1233.52,1742.09C1218.98,1767.27 1186.77,1775.9 1161.58,1761.36C1161.23,1761.16 1160.87,1760.95 1160.52,1760.75C1135.33,1746.21 1126.7,1714 1141.25,1688.81C1141.25,1688.81 1141.25,1688.81 1141.25,1688.81C1150.87,1672.15 1150.87,1651.62 1141.25,1634.95C1131.62,1618.29 1113.84,1608.02 1094.6,1608.02L1094.6,1608.02C1065.52,1608.02 1041.94,1584.44 1041.94,1555.36C1041.94,1554.95 1041.94,1554.54 1041.94,1554.13C1041.94,1525.05 1065.52,1501.47 1094.6,1501.47L1094.6,1501.47C1113.84,1501.47 1131.62,1491.21 1141.25,1474.54C1150.87,1457.88 1150.87,1437.35 1141.25,1420.68C1141.25,1420.68 1141.25,1420.68 1141.25,1420.68C1126.7,1395.49 1135.33,1363.28 1160.52,1348.74C1160.87,1348.54 1161.23,1348.33 1161.58,1348.13C1186.77,1333.59 1218.98,1342.22 1233.52,1367.4C1233.52,1367.4 1233.52,1367.41 1233.52,1367.41C1243.14,1384.07 1260.92,1394.34 1280.16,1394.34C1299.41,1394.34 1317.19,1384.07 1326.81,1367.41C1326.81,1367.41 1326.81,1367.4 1326.81,1367.4Z" style="fill:rgb(58,85,145);"/></g><g transform="matrix(0.120539,-0.0861446,0.668094,0.934843,-333.233,98.6787)"><path d="M3075.44,1521.91L1973.45,1521.91L1973.45,1630.72L3075.44,1630.72C3298.41,1593.86 3321.39,1557.53 3075.44,1521.91Z" style="fill:rgb(69,101,172);"/></g><g transform="matrix(0.121451,-0.0764209,0.0664308,0.105575,734.627,1373.15)"><ellipse cx="1251.08" cy="1142.21" rx="312.25" ry="515.096" style="fill:rgb(142,187,229);"/></g><g transform="matrix(0.121451,-0.0764209,0.0664308,0.105575,734.627,1373.15)"><ellipse cx="1251.08" cy="1142.21" rx="312.25" ry="515.096" style="fill:url(#_Linear9);"/></g><path d="M986.377,1304.07C987.551,1303.07 988.804,1302.15 990.133,1301.31C1011.06,1288.14 1043.08,1301.32 1061.58,1330.72C1080.08,1360.12 1078.1,1394.69 1057.17,1407.86C1056.88,1408.04 1056.59,1408.22 1056.3,1408.39C1073.64,1393.61 1074.27,1361.55 1056.94,1334.02C1038.7,1305.02 1007.32,1291.81 986.377,1304.07Z" style="fill:rgb(52,77,131);"/><g transform="matrix(1,0,0,1,-26.5215,20.006)"><path d="M986.377,1304.07C987.551,1303.07 988.804,1302.15 990.133,1301.31C1011.06,1288.14 1043.08,1301.32 1061.58,1330.72C1080.08,1360.12 1078.1,1394.69 1057.17,1407.86C1056.88,1408.04 1056.59,1408.22 1056.3,1408.39C1073.64,1393.61 1074.27,1361.55 1056.94,1334.02C1038.7,1305.02 1007.32,1291.81 986.377,1304.07Z" style="fill:rgb(52,77,131);"/></g><g transform="matrix(1,0,0,1,30.7412,-20.6039)"><path d="M986.377,1304.07C987.551,1303.07 988.804,1302.15 990.133,1301.31C1011.06,1288.14 1043.08,1301.32 1061.58,1330.72C1080.08,1360.12 1078.1,1394.69 1057.17,1407.86C1056.88,1408.04 1056.59,1408.22 1056.3,1408.39C1073.64,1393.61 1074.27,1361.55 1056.94,1334.02C1038.7,1305.02 1007.32,1291.81 986.377,1304.07Z" style="fill:rgb(52,77,131);"/></g></g><g transform="matrix(-1.54607,-0.519184,-0.0103932,1.75844,7855.32,1853.13)"><g transform="matrix(1,0,0,1.04422,1456.19,-517.295)"><path d="M1891.07,585.738C1891.07,572.097 1879.5,561.023 1865.26,561.023L1161.36,561.023C1147.12,561.023 1135.55,572.097 1135.55,585.738L1134.96,973.726C1134.96,987.366 1146.53,998.436 1160.77,998.436L1864.68,998.436C1878.92,998.436 1890.49,987.366 1890.49,973.726L1891.07,585.738Z" style="fill:rgb(232,246,255);"/></g><g transform="matrix(0.757522,-5.60231e-32,0,0.757522,2433.9,0.371505)"><g transform="matrix(0.894528,0,0,0.582248,112.375,239.991)"><rect x="856.673" y="558.908" width="179.031" height="12.045" style="fill:white;"/></g><g transform="matrix(0.107854,0,0,1.47645,754.97,-264.399)"><rect x="856.673" y="558.908" width="179.031" height="12.045" style="fill:white;"/></g></g><g transform="matrix(0.757522,-9.33718e-32,0,0.757522,2089.22,0.371505)"><g transform="matrix(0.894528,0,0,0.582248,112.375,239.991)"><rect x="856.673" y="558.908" width="179.031" height="12.045" style="fill:white;"/></g><g transform="matrix(0.107854,0,0,1.47645,754.97,-264.399)"><rect x="856.673" y="558.908" width="179.031" height="12.045" style="fill:white;"/></g></g><g transform="matrix(0.757522,-5.60231e-32,0,0.757522,2433.9,28.7382)"><g transform="matrix(0.894528,0,0,0.582248,112.375,239.991)"><rect x="856.673" y="558.908" width="179.031" height="12.045" style="fill:white;"/></g><g transform="matrix(0.107854,0,0,1.47645,754.97,-264.399)"><rect x="856.673" y="558.908" width="179.031" height="12.045" style="fill:white;"/></g></g><g transform="matrix(0.757522,-9.33718e-32,0,0.757522,2089.22,28.7382)"><g transform="matrix(0.894528,0,0,0.582248,112.375,239.991)"><rect x="856.673" y="558.908" width="179.031" height="12.045" style="fill:white;"/></g><g transform="matrix(0.107854,0,0,1.47645,754.97,-264.399)"><rect x="856.673" y="558.908" width="179.031" height="12.045" style="fill:white;"/></g></g><g transform="matrix(0.757522,-5.60231e-32,0,0.757522,2433.9,57.1049)"><g transform="matrix(0.894528,0,0,0.582248,112.375,239.991)"><rect x="856.673" y="558.908" width="179.031" height="12.045" style="fill:white;"/></g><g transform="matrix(0.107854,0,0,1.47645,754.97,-264.399)"><rect x="856.673" y="558.908" width="179.031" height="12.045" style="fill:white;"/></g></g><g transform="matrix(0.757522,-9.33718e-32,0,0.757522,2089.22,57.1049)"><g transform="matrix(0.894528,0,0,0.582248,112.375,239.991)"><rect x="856.673" y="558.908" width="179.031" height="12.045" style="fill:white;"/></g><g transform="matrix(0.107854,0,0,1.47645,754.97,-264.399)"><rect x="856.673" y="558.908" width="179.031" height="12.045" style="fill:white;"/></g></g><g transform="matrix(1.48525,-7.32287e-32,0,1.48525,1724.54,-125.205)"><g transform="matrix(0.362155,0,0,0.362155,366.421,-171.694)"><path d="M1867.76,976.822C1867.76,958.305 1852.72,943.271 1834.21,943.271L1400.51,943.271C1381.99,943.271 1366.96,958.305 1366.96,976.822L1366.96,1426.8C1366.96,1445.31 1381.99,1460.35 1400.51,1460.35L1834.21,1460.35C1852.72,1460.35 1867.76,1445.31 1867.76,1426.8L1867.76,976.822Z" style="fill:rgb(209,237,255);"/></g><g transform="matrix(0.498488,0,0,0.498488,632.789,-102.61)"><rect x="480.738" y="881.371" width="17.384" height="17.384" style="fill:white;"/></g><g transform="matrix(0.498488,0,0,0.498488,648.563,-102.61)"><rect x="480.738" y="881.371" width="17.384" height="17.384" style="fill:rgb(84,186,251);"/></g><g transform="matrix(-0.0787903,0.294049,-0.294049,-0.0787903,1439.84,-114.966)"><path d="M1611.07,982.347C1741.64,982.347 1847.65,1088.36 1847.65,1218.93C1847.65,1349.5 1741.64,1455.51 1611.07,1455.51C1480.5,1455.51 1374.49,1349.5 1374.49,1218.93C1374.49,1088.36 1480.5,982.347 1611.07,982.347ZM1611.07,1085.36C1684.79,1085.36 1744.64,1145.21 1744.64,1218.93C1744.64,1292.64 1684.79,1352.49 1611.07,1352.49C1537.35,1352.49 1477.51,1292.64 1477.51,1218.93C1477.51,1145.21 1537.35,1085.36 1611.07,1085.36Z" style="fill:rgb(142,187,229);"/></g><g transform="matrix(-0.082708,0.30867,-0.30867,-0.082708,1464.8,-132.202)"><path d="M1413.32,1086.07C1453.09,1028.74 1540.76,989.979 1611.97,989.979C1709.19,989.979 1794.33,1056.9 1825.91,1143.23L1726.97,1203.52C1714.01,1147.02 1663.37,1104.81 1602.94,1104.81C1556.53,1104.81 1525.96,1128.36 1503.74,1165.53L1413.32,1086.07Z" style="fill:white;"/></g></g><g transform="matrix(1.48525,-1.09843e-31,0,1.48525,1390.08,-124.894)"><g transform="matrix(0.362155,0,0,0.362155,366.421,-171.694)"><path d="M1867.76,976.822C1867.76,958.305 1852.72,943.271 1834.21,943.271L1400.51,943.271C1381.99,943.271 1366.96,958.305 1366.96,976.822L1366.96,1426.8C1366.96,1445.31 1381.99,1460.35 1400.51,1460.35L1834.21,1460.35C1852.72,1460.35 1867.76,1445.31 1867.76,1426.8L1867.76,976.822Z" style="fill:rgb(209,237,255);"/></g><g transform="matrix(0.498488,0,0,0.498488,632.789,-102.61)"><rect x="480.738" y="881.371" width="17.384" height="17.384" style="fill:white;"/></g><g transform="matrix(0.498488,0,0,0.498488,648.563,-102.61)"><rect x="480.738" y="881.371" width="17.384" height="17.384" style="fill:rgb(84,186,251);"/></g><g transform="matrix(0.263638,-0.152211,0.152211,0.263638,345.921,187.911)"><path d="M1611.07,982.347C1741.64,982.347 1847.65,1088.36 1847.65,1218.93C1847.65,1349.5 1741.64,1455.51 1611.07,1455.51C1480.5,1455.51 1374.49,1349.5 1374.49,1218.93C1374.49,1088.36 1480.5,982.347 1611.07,982.347ZM1611.07,1085.36C1684.79,1085.36 1744.64,1145.21 1744.64,1218.93C1744.64,1292.64 1684.79,1352.49 1611.07,1352.49C1537.35,1352.49 1477.51,1292.64 1477.51,1218.93C1477.51,1145.21 1537.35,1085.36 1611.07,1085.36Z" style="fill:rgb(142,187,229);"/></g><g transform="matrix(0.276746,-0.159779,0.159779,0.276746,316.088,182.453)"><path d="M1413.32,1086.07C1453.09,1028.74 1540.76,989.979 1611.97,989.979C1709.19,989.979 1794.33,1056.9 1825.91,1143.23L1726.97,1203.52C1714.01,1147.02 1663.37,1104.81 1602.94,1104.81C1556.53,1104.81 1525.96,1128.36 1503.74,1165.53L1413.32,1086.07Z" style="fill:white;"/></g></g><path d="M2591.74,96.622L2591.74,94.342C2591.74,80.098 2603.3,68.534 2617.55,68.534L3321.45,68.534C3335.69,68.534 3347.25,80.098 3347.25,94.342L3347.25,96.622L2591.74,96.622Z" style="fill:rgb(142,187,229);"/><g transform="matrix(-1.80752,3.19635e-16,0.013198,1.76493,6709.43,-1247.21)"><circle cx="2242.18" cy="753.34" r="2.572" style="fill:white;"/></g><g transform="matrix(-1.80752,3.19635e-16,0.013198,1.76493,6685.83,-1247.21)"><circle cx="2242.18" cy="753.34" r="2.572" style="fill:white;"/></g><g transform="matrix(-1.80752,3.19635e-16,0.013198,1.76493,6662.23,-1247.21)"><circle cx="2242.18" cy="753.34" r="2.572" style="fill:white;"/></g></g><g transform="matrix(1.17577,0.399119,-0.0227531,1.30352,-459.485,-1081.54)"><g transform="matrix(0.983407,-5.55112e-17,0,1.13509,419.327,-66.6567)"><path d="M1833.5,481.264L1833.5,1003.31C1833.5,1009.97 1838.05,1015.77 1844.52,1017.36C1850.99,1018.96 1855.64,1014.71 1860.8,1010.02C1899,975.283 1935.74,942.051 1960.24,921.547C1979.18,905.69 1996.65,901.424 2017.83,901.424C2180.61,901.424 2816.66,901.424 3010.57,901.424C3017.29,901.424 2994.46,927.58 3000.55,925.058C3006.64,922.535 3041.64,891.334 3046.4,886.583C3055.9,877.081 3061.24,864.193 3061.24,850.755C3061.24,760.682 3061.24,573.754 3061.24,484.124C3061.24,470.848 3055.96,458.117 3046.58,448.73C3037.19,439.343 3024.46,434.07 3011.18,434.07C2811.72,434.07 2074.93,434.07 1880.69,434.07C1868.17,434.07 1856.17,439.042 1847.32,447.893C1843.45,451.765 1812.24,475.856 1809.94,480.714C1806.99,486.96 1833.5,474.223 1833.5,481.264Z" style="fill:rgb(64,103,177);"/></g><g transform="matrix(0.983407,0,0,1.13509,384.446,-31.7883)"><path d="M1833.5,481.264L1833.5,1003.31C1833.5,1009.97 1838.05,1015.77 1844.52,1017.36C1850.99,1018.96 1855.64,1014.71 1860.8,1010.02C1899,975.283 1935.74,942.051 1960.24,921.547C1979.18,905.69 1996.65,901.424 2017.83,901.424C2180.61,901.424 2816.66,901.424 3010.57,901.424C3024.01,901.424 3036.89,896.085 3046.4,886.583C3055.9,877.081 3061.24,864.193 3061.24,850.755C3061.24,760.682 3061.24,573.754 3061.24,484.124C3061.24,470.848 3055.96,458.117 3046.58,448.73C3037.19,439.343 3024.46,434.07 3011.18,434.07C2811.72,434.07 2074.93,434.07 1880.69,434.07C1868.17,434.07 1856.17,439.042 1847.32,447.893C1838.47,456.743 1833.5,468.747 1833.5,481.264Z" style="fill:rgb(45,69,132);"/></g><g transform="matrix(1.01354,0,0,1.1683,-55.9188,-91.9413)"><path d="M3375.2,544.113C3375.2,519.121 3355.52,498.831 3331.27,498.831L2291.68,498.831C2267.43,498.831 2247.74,519.121 2247.74,544.113L2247.74,848.188C2247.74,873.18 2267.43,893.47 2291.68,893.47L3331.27,893.47C3355.52,893.47 3375.2,873.18 3375.2,848.188L3375.2,544.113Z" style="fill:rgb(142,187,229);"/></g><g transform="matrix(0.70331,-0.0122081,0.00167447,0.695699,1066.01,251.663)"><g><path d="M2013.37,830.856L2013.37,886.303L1804.11,886.303C1806.38,865.342 1813.18,845.479 1824.51,826.713C1835.84,807.948 1858.21,783.057 1891.64,752.04C1918.55,726.972 1935.05,709.977 1941.14,701.054C1949.35,688.732 1953.46,676.552 1953.46,664.514C1953.46,651.201 1949.88,640.968 1942.73,633.816C1935.58,626.664 1925.7,623.088 1913.09,623.088C1900.63,623.088 1890.72,626.841 1883.35,634.347C1875.99,641.854 1871.74,654.317 1870.61,671.737L1811.12,665.789C1814.66,632.931 1825.78,609.35 1844.48,595.046C1863.17,580.741 1886.54,573.589 1914.58,573.589C1945.31,573.589 1969.46,581.874 1987.02,598.445C2004.59,615.015 2013.37,635.622 2013.37,660.265C2013.37,674.286 2010.85,687.635 2005.83,700.31C2000.8,712.986 1992.83,726.264 1981.92,740.143C1974.7,749.349 1961.67,762.591 1942.84,779.87C1924,797.149 1912.07,808.62 1907.04,814.285C1902.01,819.951 1897.94,825.474 1894.82,830.856L2013.37,830.856Z" style="fill:white;fill-rule:nonzero;"/><path d="M2206.48,886.303L2146.78,886.303L2146.78,661.327C2124.97,681.722 2099.26,696.805 2069.66,706.578L2069.66,652.405C2085.24,647.306 2102.17,637.64 2120.44,623.407C2138.71,609.173 2151.24,592.567 2158.04,573.589L2206.48,573.589L2206.48,886.303Z" style="fill:white;fill-rule:nonzero;"/><rect x="2308.45" y="826.607" width="59.696" height="59.696" style="fill:white;fill-rule:nonzero;"/><path d="M2569.33,886.303L2509.63,886.303L2509.63,661.327C2487.82,681.722 2462.11,696.805 2432.51,706.578L2432.51,652.405C2448.09,647.306 2465.02,637.64 2483.29,623.407C2501.56,609.173 2514.09,592.567 2520.89,573.589L2569.33,573.589L2569.33,886.303Z" style="fill:white;fill-rule:nonzero;"/></g><g transform="matrix(0.43758,0,0,0.43758,1837.44,293.289)"><path d="M1822.38,886.303L1822.38,574.864L1882.08,574.864L1882.08,740.143L1951.97,660.69L2025.48,660.69L1948.36,743.118L2031,886.303L1966.63,886.303L1909.91,784.969L1882.08,814.073L1882.08,886.303L1822.38,886.303Z" style="fill:white;fill-rule:nonzero;"/><path d="M2060.95,901.174L2129.15,909.459C2130.28,917.391 2132.9,922.843 2137.01,925.817C2142.67,930.066 2151.6,932.191 2163.78,932.191C2179.35,932.191 2191.04,929.854 2198.83,925.18C2204.07,922.064 2208.03,917.036 2210.72,910.097C2212.57,905.14 2213.49,896.005 2213.49,882.692L2213.49,849.763C2195.64,874.123 2173.12,886.303 2145.93,886.303C2115.62,886.303 2091.62,873.486 2073.91,847.851C2060.03,827.599 2053.09,802.389 2053.09,772.222C2053.09,734.407 2062.19,705.515 2080.39,685.546C2098.59,665.576 2121.22,655.592 2148.27,655.592C2176.17,655.592 2199.18,667.842 2217.31,692.344L2217.31,660.69L2273.18,660.69L2273.18,863.147C2273.18,889.773 2270.99,909.672 2266.6,922.843C2262.21,936.015 2256.05,946.353 2248.12,953.86C2240.18,961.366 2229.6,967.244 2216.36,971.492C2203.11,975.741 2186.37,977.866 2166.11,977.866C2127.87,977.866 2100.75,971.315 2084.75,958.215C2068.74,945.114 2060.74,928.508 2060.74,908.397C2060.74,906.414 2060.81,904.007 2060.95,901.174ZM2114.28,768.823C2114.28,792.758 2118.91,810.284 2128.19,821.402C2137.47,832.52 2148.9,838.079 2162.5,838.079C2177.09,838.079 2189.41,832.378 2199.47,820.977C2209.52,809.576 2214.55,792.687 2214.55,770.31C2214.55,746.941 2209.73,729.592 2200.1,718.262C2190.47,706.932 2178.29,701.266 2163.56,701.266C2149.26,701.266 2137.47,706.825 2128.19,717.943C2118.91,729.061 2114.28,746.021 2114.28,768.823Z" style="fill:white;fill-rule:nonzero;"/><path d="M2300.38,891.614L2377.49,569.553L2422.32,569.553L2344.35,891.614L2300.38,891.614Z" style="fill:white;fill-rule:nonzero;"/><path d="M2448.66,660.69L2503.68,660.69L2503.68,691.494C2523.37,667.559 2546.81,655.592 2574,655.592C2588.45,655.592 2600.98,658.566 2611.6,664.514C2622.22,670.462 2630.93,679.456 2637.73,691.494C2647.65,679.456 2658.34,670.462 2669.81,664.514C2681.28,658.566 2693.53,655.592 2706.56,655.592C2723.13,655.592 2737.16,658.955 2748.63,665.682C2760.1,672.41 2768.67,682.288 2774.33,695.318C2778.44,704.949 2780.49,720.528 2780.49,742.055L2780.49,886.303L2720.8,886.303L2720.8,757.351C2720.8,734.974 2718.74,720.528 2714.64,714.013C2709.11,705.515 2700.62,701.266 2689.14,701.266C2680.79,701.266 2672.93,703.816 2665.56,708.914C2658.2,714.013 2652.89,721.484 2649.63,731.327C2646.37,741.17 2644.74,756.714 2644.74,777.958L2644.74,886.303L2585.05,886.303L2585.05,762.662C2585.05,740.71 2583.99,726.547 2581.86,720.174C2579.74,713.801 2576.44,709.056 2571.98,705.94C2567.52,702.824 2561.47,701.266 2553.82,701.266C2544.61,701.266 2536.33,703.745 2528.96,708.702C2521.6,713.659 2516.32,720.811 2513.14,730.159C2509.95,739.506 2508.36,755.014 2508.36,776.683L2508.36,886.303L2448.66,886.303L2448.66,660.69Z" style="fill:white;fill-rule:nonzero;"/></g><g transform="matrix(0.177786,0,0,0.177786,2744.65,457.759)"><path d="M2013.37,830.856L2013.37,886.303L1804.11,886.303C1806.38,865.342 1813.18,845.479 1824.51,826.713C1835.84,807.948 1858.21,783.057 1891.64,752.04C1918.55,726.972 1935.05,709.977 1941.14,701.054C1949.35,688.732 1953.46,676.552 1953.46,664.514C1953.46,651.201 1949.88,640.968 1942.73,633.816C1935.58,626.664 1925.7,623.088 1913.09,623.088C1900.63,623.088 1890.72,626.841 1883.35,634.347C1875.99,641.854 1871.74,654.317 1870.61,671.737L1811.12,665.789C1814.66,632.931 1825.78,609.35 1844.48,595.046C1863.17,580.741 1886.54,573.589 1914.58,573.589C1945.31,573.589 1969.46,581.874 1987.02,598.445C2004.59,615.015 2013.37,635.622 2013.37,660.265C2013.37,674.286 2010.85,687.635 2005.83,700.31C2000.8,712.986 1992.83,726.264 1981.92,740.143C1974.7,749.349 1961.67,762.591 1942.84,779.87C1924,797.149 1912.07,808.62 1907.04,814.285C1902.01,819.951 1897.94,825.474 1894.82,830.856L2013.37,830.856Z" style="fill:white;fill-rule:nonzero;"/></g></g><g transform="matrix(1.04982,-0.321439,0.0183247,0.94693,-244.451,734.702)"><path d="M2352.9,556.845C2358.12,555.625 2363.85,555.912 2369.84,557.945L3367.59,896.636C3390.86,904.536 3409.32,935.837 3408.79,966.49L3402.28,1339.44C3402,1355.13 3396.81,1367.62 3388.68,1375.03C3403.73,1371.51 3414.49,1355.47 3414.88,1332.7L3421.39,959.751C3421.93,929.098 3403.47,897.798 3380.2,889.898L2382.44,551.207C2371.08,547.349 2360.66,549.78 2352.9,556.845Z" style="fill:rgb(212,229,245);"/></g></g><g transform="matrix(0.67672,0,0,0.67672,-507.642,307.989)"><g transform="matrix(0.836385,-0.434757,0.434757,0.836385,730.969,82.5158)"><g transform="matrix(1.14649,-0.0945354,0.0821774,0.996618,-325.798,117.381)"><path d="M1267.54,641.055C1439.88,641.055 1563.33,857.925 1563.33,1142.21C1563.33,1332.44 1501.23,1514.47 1383.34,1613.73C1325.04,1662.82 1224.38,1691.25 1167.36,1691.25C1147.75,1691.25 1212.27,1654.32 1193.66,1648.61C1048.71,1604.09 938.825,1394.15 938.825,1142.21C938.825,905.304 951.154,734.751 1083.28,674.745C1109.7,662.744 1238.82,641.055 1267.54,641.055Z" style="fill:rgb(5,131,124);"/></g><g transform="matrix(1.14649,-0.0945354,0.0821774,0.996618,-439.573,163.526)"><ellipse cx="1251.08" cy="1142.21" rx="312.25" ry="515.096" style="fill:rgb(68,174,158);"/></g><g transform="matrix(1.14649,-0.0945354,0.0821774,0.996618,-439.573,163.526)"><ellipse cx="1251.08" cy="1142.21" rx="312.25" ry="515.096" style="fill:url(#_Linear10);"/></g><g transform="matrix(0.887288,0.461216,-0.461216,0.887288,-558.404,-332.678)"><path d="M1977.85,923.088L2077.74,562.975L2185.92,638L2095.29,1007.72C2054.79,985.681 2015.15,957.263 1977.85,923.088Z" style="fill:url(#_Linear11);"/></g></g><g transform="matrix(0.81359,-0.581439,0.961546,1.34546,-1885.57,241.007)"><path d="M3075.44,1521.91L1973.45,1521.91L1973.45,1630.72L3075.44,1630.72C3137.75,1588.15 3135.67,1551.97 3075.44,1521.91Z" style="fill:rgb(58,85,145);"/></g><g transform="matrix(0.887288,-0.461216,0.461216,0.887288,-301.373,672.843)"><g transform="matrix(1.14649,-0.0945354,0.0821774,0.996618,-325.798,117.381)"><path d="M1267.54,641.055C1439.88,641.055 1563.33,857.925 1563.33,1142.21C1563.33,1332.44 1501.23,1514.47 1383.34,1613.73C1325.04,1662.82 1224.38,1691.25 1167.36,1691.25C1147.75,1691.25 1212.27,1654.32 1193.66,1648.61C1048.71,1604.09 938.825,1394.15 938.825,1142.21C938.825,905.304 951.154,734.751 1083.28,674.745C1109.7,662.744 1238.82,641.055 1267.54,641.055Z" style="fill:rgb(5,131,124);"/></g><g transform="matrix(1.14649,-0.0945354,0.0821774,0.996618,-439.573,163.526)"><ellipse cx="1251.08" cy="1142.21" rx="312.25" ry="515.096" style="fill:rgb(68,174,158);"/></g><g transform="matrix(1.14649,-0.0945354,0.0821774,0.996618,-439.573,163.526)"><ellipse cx="1251.08" cy="1142.21" rx="312.25" ry="515.096" style="fill:url(#_Linear12);"/></g></g><g transform="matrix(0.565924,-0.29417,0.29417,0.565924,187.196,921.345)"><g transform="matrix(1.14649,-0.0945354,0.0821774,0.996618,-325.798,117.381)"><path d="M1267.54,641.055C1439.88,641.055 1563.33,857.925 1563.33,1142.21C1563.33,1332.44 1501.23,1514.47 1383.34,1613.73C1325.04,1662.82 1224.38,1691.25 1167.36,1691.25C1147.75,1691.25 1212.27,1654.32 1193.66,1648.61C1048.71,1604.09 938.825,1394.15 938.825,1142.21C938.825,905.304 951.154,734.751 1083.28,674.745C1109.7,662.744 1238.82,641.055 1267.54,641.055Z" style="fill:rgb(5,131,124);"/></g><g transform="matrix(1.14649,-0.0945354,0.0821774,0.996618,-439.573,163.526)"><ellipse cx="1251.08" cy="1142.21" rx="312.25" ry="515.096" style="fill:rgb(83,188,172);"/></g></g><g transform="matrix(0.671104,0.223734,-0.0105255,0.742184,305.056,-155.543)"><path d="M1326.81,1367.4C1341.35,1342.22 1373.56,1333.59 1398.75,1348.13C1399.1,1348.33 1399.45,1348.54 1399.81,1348.74C1425,1363.28 1433.62,1395.49 1419.08,1420.68C1419.08,1420.68 1419.08,1420.68 1419.08,1420.68C1409.46,1437.35 1409.46,1457.88 1419.08,1474.54C1428.7,1491.21 1446.49,1501.47 1465.73,1501.47L1465.73,1501.47C1494.81,1501.47 1518.39,1525.05 1518.39,1554.13L1518.39,1555.36C1518.39,1584.44 1506.33,1580.92 1479.81,1610.04C1459.93,1631.85 1438.03,1650.65 1438.03,1650.65C1418.79,1650.65 1428.7,1618.29 1419.08,1634.95C1409.46,1651.62 1409.46,1672.15 1419.08,1688.81C1419.08,1688.81 1419.08,1688.81 1419.08,1688.81C1433.62,1714 1425,1746.21 1399.81,1760.75C1399.45,1760.95 1399.1,1761.16 1398.75,1761.36C1392.27,1765.1 1342.99,1817.92 1336.01,1818.71C1315.83,1820.99 1337.62,1760.8 1326.81,1742.09C1326.81,1742.09 1326.81,1742.09 1326.81,1742.09C1317.19,1725.42 1299.41,1715.15 1280.16,1715.15C1260.92,1715.15 1243.14,1725.42 1233.52,1742.09C1233.52,1742.09 1233.52,1742.09 1233.52,1742.09C1218.98,1767.27 1186.77,1775.9 1161.58,1761.36C1161.23,1761.16 1160.87,1760.95 1160.52,1760.75C1135.33,1746.21 1126.7,1714 1141.25,1688.81C1141.25,1688.81 1141.25,1688.81 1141.25,1688.81C1150.87,1672.15 1150.87,1651.62 1141.25,1634.95C1131.62,1618.29 1113.84,1608.02 1094.6,1608.02L1094.6,1608.02C1065.52,1608.02 1027.15,1614.35 1027.15,1585.27C1027.15,1584.86 1027.15,1584.45 1027.15,1584.04C1027.15,1577.07 984.687,1592.03 987.143,1585.94C994.944,1566.62 1072.48,1501.47 1094.6,1501.47L1094.6,1501.47C1113.84,1501.47 1131.62,1491.21 1141.25,1474.54C1150.87,1457.88 1150.87,1437.35 1141.25,1420.68C1141.25,1420.68 1141.25,1420.68 1141.25,1420.68C1130.96,1402.87 1074.95,1434.67 1085.49,1418.57C1089.86,1411.89 1153.14,1353 1160.52,1348.74C1160.87,1348.54 1161.23,1348.33 1161.58,1348.13C1186.77,1333.59 1218.98,1342.22 1233.52,1367.4C1233.52,1367.4 1233.52,1367.41 1233.52,1367.41C1243.14,1384.07 1260.92,1394.34 1280.16,1394.34C1299.41,1394.34 1317.19,1384.07 1326.81,1367.41C1326.81,1367.41 1326.81,1367.4 1326.81,1367.4Z" style="fill:rgb(142,187,229);"/></g><g transform="matrix(0.671104,0.223734,-0.0105255,0.742184,305.056,-155.543)"><path d="M1326.81,1367.4C1341.35,1342.22 1373.56,1333.59 1398.75,1348.13C1399.1,1348.33 1399.45,1348.54 1399.81,1348.74C1425,1363.28 1433.62,1395.49 1419.08,1420.68C1419.08,1420.68 1419.08,1420.68 1419.08,1420.68C1409.46,1437.35 1409.46,1457.88 1419.08,1474.54C1428.7,1491.21 1446.49,1501.47 1465.73,1501.47L1465.73,1501.47C1494.81,1501.47 1518.39,1525.05 1518.39,1554.13L1518.39,1555.36C1518.39,1584.44 1506.33,1580.92 1479.81,1610.04C1459.93,1631.85 1438.03,1650.65 1438.03,1650.65C1418.79,1650.65 1428.7,1618.29 1419.08,1634.95C1409.46,1651.62 1409.46,1672.15 1419.08,1688.81C1419.08,1688.81 1419.08,1688.81 1419.08,1688.81C1433.62,1714 1425,1746.21 1399.81,1760.75C1399.45,1760.95 1399.1,1761.16 1398.75,1761.36C1392.27,1765.1 1342.99,1817.92 1336.01,1818.71C1315.83,1820.99 1337.62,1760.8 1326.81,1742.09C1326.81,1742.09 1326.81,1742.09 1326.81,1742.09C1317.19,1725.42 1299.41,1715.15 1280.16,1715.15C1260.92,1715.15 1243.14,1725.42 1233.52,1742.09C1233.52,1742.09 1233.52,1742.09 1233.52,1742.09C1218.98,1767.27 1186.77,1775.9 1161.58,1761.36C1161.23,1761.16 1160.87,1760.95 1160.52,1760.75C1135.33,1746.21 1126.7,1714 1141.25,1688.81C1141.25,1688.81 1141.25,1688.81 1141.25,1688.81C1150.87,1672.15 1150.87,1651.62 1141.25,1634.95C1131.62,1618.29 1113.84,1608.02 1094.6,1608.02L1094.6,1608.02C1065.52,1608.02 1027.15,1614.35 1027.15,1585.27C1027.15,1584.86 1027.15,1584.45 1027.15,1584.04C1027.15,1577.07 984.687,1592.03 987.143,1585.94C994.944,1566.62 1072.48,1501.47 1094.6,1501.47L1094.6,1501.47C1113.84,1501.47 1131.62,1491.21 1141.25,1474.54C1150.87,1457.88 1150.87,1437.35 1141.25,1420.68C1141.25,1420.68 1141.25,1420.68 1141.25,1420.68C1130.96,1402.87 1074.95,1434.67 1085.49,1418.57C1089.86,1411.89 1153.14,1353 1160.52,1348.74C1160.87,1348.54 1161.23,1348.33 1161.58,1348.13C1186.77,1333.59 1218.98,1342.22 1233.52,1367.4C1233.52,1367.4 1233.52,1367.41 1233.52,1367.41C1243.14,1384.07 1260.92,1394.34 1280.16,1394.34C1299.41,1394.34 1317.19,1384.07 1326.81,1367.41C1326.81,1367.41 1326.81,1367.4 1326.81,1367.4Z" style="fill:url(#_Linear13);"/></g><g transform="matrix(0.671104,0.223734,-0.0105255,0.742184,259.973,-125.998)"><path d="M1326.81,1367.4C1341.35,1342.22 1373.56,1333.59 1398.75,1348.13C1399.1,1348.33 1399.45,1348.54 1399.81,1348.74C1425,1363.28 1433.62,1395.49 1419.08,1420.68C1419.08,1420.68 1419.08,1420.68 1419.08,1420.68C1409.46,1437.35 1409.46,1457.88 1419.08,1474.54C1428.7,1491.21 1446.49,1501.47 1465.73,1501.47L1465.73,1501.47C1494.81,1501.47 1518.39,1525.05 1518.39,1554.13L1518.39,1555.36C1518.39,1584.44 1494.81,1608.02 1465.73,1608.02C1465.73,1608.02 1465.73,1608.02 1465.73,1608.02C1446.49,1608.02 1428.7,1618.29 1419.08,1634.95C1409.46,1651.62 1409.46,1672.15 1419.08,1688.81C1419.08,1688.81 1419.08,1688.81 1419.08,1688.81C1433.62,1714 1425,1746.21 1399.81,1760.75C1399.45,1760.95 1399.1,1761.16 1398.75,1761.36C1373.56,1775.9 1341.35,1767.27 1326.81,1742.09C1326.81,1742.09 1326.81,1742.09 1326.81,1742.09C1317.19,1725.42 1299.41,1715.15 1280.16,1715.15C1260.92,1715.15 1243.14,1725.42 1233.52,1742.09C1233.52,1742.09 1233.52,1742.09 1233.52,1742.09C1218.98,1767.27 1186.77,1775.9 1161.58,1761.36C1161.23,1761.16 1160.87,1760.95 1160.52,1760.75C1135.33,1746.21 1126.7,1714 1141.25,1688.81C1141.25,1688.81 1141.25,1688.81 1141.25,1688.81C1150.87,1672.15 1150.87,1651.62 1141.25,1634.95C1131.62,1618.29 1113.84,1608.02 1094.6,1608.02L1094.6,1608.02C1065.52,1608.02 1041.94,1584.44 1041.94,1555.36C1041.94,1554.95 1041.94,1554.54 1041.94,1554.13C1041.94,1525.05 1065.52,1501.47 1094.6,1501.47L1094.6,1501.47C1113.84,1501.47 1131.62,1491.21 1141.25,1474.54C1150.87,1457.88 1150.87,1437.35 1141.25,1420.68C1141.25,1420.68 1141.25,1420.68 1141.25,1420.68C1126.7,1395.49 1135.33,1363.28 1160.52,1348.74C1160.87,1348.54 1161.23,1348.33 1161.58,1348.13C1186.77,1333.59 1218.98,1342.22 1233.52,1367.4C1233.52,1367.4 1233.52,1367.41 1233.52,1367.41C1243.14,1384.07 1260.92,1394.34 1280.16,1394.34C1299.41,1394.34 1317.19,1384.07 1326.81,1367.41C1326.81,1367.41 1326.81,1367.4 1326.81,1367.4Z" style="fill:rgb(58,85,145);"/></g><g transform="matrix(0.120539,-0.0861446,0.668094,0.934843,-333.233,98.6787)"><path d="M3075.44,1521.91L1973.45,1521.91L1973.45,1630.72L3075.44,1630.72C3298.41,1593.86 3321.39,1557.53 3075.44,1521.91Z" style="fill:rgb(69,101,172);"/></g><g transform="matrix(0.121451,-0.0764209,0.0664308,0.105575,734.627,1373.15)"><ellipse cx="1251.08" cy="1142.21" rx="312.25" ry="515.096" style="fill:rgb(142,187,229);"/></g><g transform="matrix(0.121451,-0.0764209,0.0664308,0.105575,734.627,1373.15)"><ellipse cx="1251.08" cy="1142.21" rx="312.25" ry="515.096" style="fill:url(#_Linear14);"/></g><path d="M986.377,1304.07C987.551,1303.07 988.804,1302.15 990.133,1301.31C1011.06,1288.14 1043.08,1301.32 1061.58,1330.72C1080.08,1360.12 1078.1,1394.69 1057.17,1407.86C1056.88,1408.04 1056.59,1408.22 1056.3,1408.39C1073.64,1393.61 1074.27,1361.55 1056.94,1334.02C1038.7,1305.02 1007.32,1291.81 986.377,1304.07Z" style="fill:rgb(52,77,131);"/><g transform="matrix(1,0,0,1,-26.5215,20.006)"><path d="M986.377,1304.07C987.551,1303.07 988.804,1302.15 990.133,1301.31C1011.06,1288.14 1043.08,1301.32 1061.58,1330.72C1080.08,1360.12 1078.1,1394.69 1057.17,1407.86C1056.88,1408.04 1056.59,1408.22 1056.3,1408.39C1073.64,1393.61 1074.27,1361.55 1056.94,1334.02C1038.7,1305.02 1007.32,1291.81 986.377,1304.07Z" style="fill:rgb(52,77,131);"/></g><g transform="matrix(1,0,0,1,30.7412,-20.6039)"><path d="M986.377,1304.07C987.551,1303.07 988.804,1302.15 990.133,1301.31C1011.06,1288.14 1043.08,1301.32 1061.58,1330.72C1080.08,1360.12 1078.1,1394.69 1057.17,1407.86C1056.88,1408.04 1056.59,1408.22 1056.3,1408.39C1073.64,1393.61 1074.27,1361.55 1056.94,1334.02C1038.7,1305.02 1007.32,1291.81 986.377,1304.07Z" style="fill:rgb(52,77,131);"/></g></g><g transform="matrix(0.67672,0,0,0.67672,2924.25,1214.59)"><g transform="matrix(0.81359,-0.581439,0.961546,1.34546,-1885.57,241.007)"><path d="M3075.44,1521.91L1973.45,1521.91L1973.45,1630.72L3075.44,1630.72C3137.75,1588.15 3135.67,1551.97 3075.44,1521.91Z" style="fill:rgb(58,85,145);"/></g><g transform="matrix(0.887288,-0.461216,0.461216,0.887288,-301.373,672.843)"><g transform="matrix(1.14649,-0.0945354,0.0821774,0.996618,-325.798,117.381)"><path d="M1267.54,641.055C1439.88,641.055 1563.33,857.925 1563.33,1142.21C1563.33,1332.44 1501.23,1514.47 1383.34,1613.73C1325.04,1662.82 1224.38,1691.25 1167.36,1691.25C1147.75,1691.25 1212.27,1654.32 1193.66,1648.61C1048.71,1604.09 938.825,1394.15 938.825,1142.21C938.825,905.304 951.154,734.751 1083.28,674.745C1109.7,662.744 1238.82,641.055 1267.54,641.055Z" style="fill:rgb(5,131,124);"/></g><g transform="matrix(1.14649,-0.0945354,0.0821774,0.996618,-439.573,163.526)"><ellipse cx="1251.08" cy="1142.21" rx="312.25" ry="515.096" style="fill:rgb(68,174,158);"/></g><g transform="matrix(1.14649,-0.0945354,0.0821774,0.996618,-439.573,163.526)"><ellipse cx="1251.08" cy="1142.21" rx="312.25" ry="515.096" style="fill:url(#_Linear15);"/></g></g><g transform="matrix(0.565924,-0.29417,0.29417,0.565924,187.196,921.345)"><g transform="matrix(1.14649,-0.0945354,0.0821774,0.996618,-325.798,117.381)"><path d="M1267.54,641.055C1439.88,641.055 1563.33,857.925 1563.33,1142.21C1563.33,1332.44 1501.23,1514.47 1383.34,1613.73C1325.04,1662.82 1224.38,1691.25 1167.36,1691.25C1147.75,1691.25 1212.27,1654.32 1193.66,1648.61C1048.71,1604.09 938.825,1394.15 938.825,1142.21C938.825,905.304 951.154,734.751 1083.28,674.745C1109.7,662.744 1238.82,641.055 1267.54,641.055Z" style="fill:rgb(5,131,124);"/></g><g transform="matrix(1.14649,-0.0945354,0.0821774,0.996618,-439.573,163.526)"><ellipse cx="1251.08" cy="1142.21" rx="312.25" ry="515.096" style="fill:rgb(83,188,172);"/></g></g><g transform="matrix(0.671104,0.223734,-0.0105255,0.742184,305.056,-155.543)"><path d="M1326.81,1367.4C1341.35,1342.22 1373.56,1333.59 1398.75,1348.13C1399.1,1348.33 1399.45,1348.54 1399.81,1348.74C1425,1363.28 1433.62,1395.49 1419.08,1420.68C1419.08,1420.68 1419.08,1420.68 1419.08,1420.68C1409.46,1437.35 1409.46,1457.88 1419.08,1474.54C1428.7,1491.21 1446.49,1501.47 1465.73,1501.47L1465.73,1501.47C1494.81,1501.47 1518.39,1525.05 1518.39,1554.13L1518.39,1555.36C1518.39,1584.44 1506.33,1580.92 1479.81,1610.04C1459.93,1631.85 1438.03,1650.65 1438.03,1650.65C1418.79,1650.65 1428.7,1618.29 1419.08,1634.95C1409.46,1651.62 1409.46,1672.15 1419.08,1688.81C1419.08,1688.81 1419.08,1688.81 1419.08,1688.81C1433.62,1714 1425,1746.21 1399.81,1760.75C1399.45,1760.95 1399.1,1761.16 1398.75,1761.36C1392.27,1765.1 1342.99,1817.92 1336.01,1818.71C1315.83,1820.99 1337.62,1760.8 1326.81,1742.09C1326.81,1742.09 1326.81,1742.09 1326.81,1742.09C1317.19,1725.42 1299.41,1715.15 1280.16,1715.15C1260.92,1715.15 1243.14,1725.42 1233.52,1742.09C1233.52,1742.09 1233.52,1742.09 1233.52,1742.09C1218.98,1767.27 1186.77,1775.9 1161.58,1761.36C1161.23,1761.16 1160.87,1760.95 1160.52,1760.75C1135.33,1746.21 1126.7,1714 1141.25,1688.81C1141.25,1688.81 1141.25,1688.81 1141.25,1688.81C1150.87,1672.15 1150.87,1651.62 1141.25,1634.95C1131.62,1618.29 1113.84,1608.02 1094.6,1608.02L1094.6,1608.02C1065.52,1608.02 1027.15,1614.35 1027.15,1585.27C1027.15,1584.86 1027.15,1584.45 1027.15,1584.04C1027.15,1577.07 984.687,1592.03 987.143,1585.94C994.944,1566.62 1072.48,1501.47 1094.6,1501.47L1094.6,1501.47C1113.84,1501.47 1131.62,1491.21 1141.25,1474.54C1150.87,1457.88 1150.87,1437.35 1141.25,1420.68C1141.25,1420.68 1141.25,1420.68 1141.25,1420.68C1130.96,1402.87 1074.95,1434.67 1085.49,1418.57C1089.86,1411.89 1153.14,1353 1160.52,1348.74C1160.87,1348.54 1161.23,1348.33 1161.58,1348.13C1186.77,1333.59 1218.98,1342.22 1233.52,1367.4C1233.52,1367.4 1233.52,1367.41 1233.52,1367.41C1243.14,1384.07 1260.92,1394.34 1280.16,1394.34C1299.41,1394.34 1317.19,1384.07 1326.81,1367.41C1326.81,1367.41 1326.81,1367.4 1326.81,1367.4Z" style="fill:rgb(142,187,229);"/></g><g transform="matrix(0.671104,0.223734,-0.0105255,0.742184,305.056,-155.543)"><path d="M1326.81,1367.4C1341.35,1342.22 1373.56,1333.59 1398.75,1348.13C1399.1,1348.33 1399.45,1348.54 1399.81,1348.74C1425,1363.28 1433.62,1395.49 1419.08,1420.68C1419.08,1420.68 1419.08,1420.68 1419.08,1420.68C1409.46,1437.35 1409.46,1457.88 1419.08,1474.54C1428.7,1491.21 1446.49,1501.47 1465.73,1501.47L1465.73,1501.47C1494.81,1501.47 1518.39,1525.05 1518.39,1554.13L1518.39,1555.36C1518.39,1584.44 1506.33,1580.92 1479.81,1610.04C1459.93,1631.85 1438.03,1650.65 1438.03,1650.65C1418.79,1650.65 1428.7,1618.29 1419.08,1634.95C1409.46,1651.62 1409.46,1672.15 1419.08,1688.81C1419.08,1688.81 1419.08,1688.81 1419.08,1688.81C1433.62,1714 1425,1746.21 1399.81,1760.75C1399.45,1760.95 1399.1,1761.16 1398.75,1761.36C1392.27,1765.1 1342.99,1817.92 1336.01,1818.71C1315.83,1820.99 1337.62,1760.8 1326.81,1742.09C1326.81,1742.09 1326.81,1742.09 1326.81,1742.09C1317.19,1725.42 1299.41,1715.15 1280.16,1715.15C1260.92,1715.15 1243.14,1725.42 1233.52,1742.09C1233.52,1742.09 1233.52,1742.09 1233.52,1742.09C1218.98,1767.27 1186.77,1775.9 1161.58,1761.36C1161.23,1761.16 1160.87,1760.95 1160.52,1760.75C1135.33,1746.21 1126.7,1714 1141.25,1688.81C1141.25,1688.81 1141.25,1688.81 1141.25,1688.81C1150.87,1672.15 1150.87,1651.62 1141.25,1634.95C1131.62,1618.29 1113.84,1608.02 1094.6,1608.02L1094.6,1608.02C1065.52,1608.02 1027.15,1614.35 1027.15,1585.27C1027.15,1584.86 1027.15,1584.45 1027.15,1584.04C1027.15,1577.07 984.687,1592.03 987.143,1585.94C994.944,1566.62 1072.48,1501.47 1094.6,1501.47L1094.6,1501.47C1113.84,1501.47 1131.62,1491.21 1141.25,1474.54C1150.87,1457.88 1150.87,1437.35 1141.25,1420.68C1141.25,1420.68 1141.25,1420.68 1141.25,1420.68C1130.96,1402.87 1074.95,1434.67 1085.49,1418.57C1089.86,1411.89 1153.14,1353 1160.52,1348.74C1160.87,1348.54 1161.23,1348.33 1161.58,1348.13C1186.77,1333.59 1218.98,1342.22 1233.52,1367.4C1233.52,1367.4 1233.52,1367.41 1233.52,1367.41C1243.14,1384.07 1260.92,1394.34 1280.16,1394.34C1299.41,1394.34 1317.19,1384.07 1326.81,1367.41C1326.81,1367.41 1326.81,1367.4 1326.81,1367.4Z" style="fill:url(#_Linear16);"/></g><g transform="matrix(0.671104,0.223734,-0.0105255,0.742184,259.973,-125.998)"><path d="M1326.81,1367.4C1341.35,1342.22 1373.56,1333.59 1398.75,1348.13C1399.1,1348.33 1399.45,1348.54 1399.81,1348.74C1425,1363.28 1433.62,1395.49 1419.08,1420.68C1419.08,1420.68 1419.08,1420.68 1419.08,1420.68C1409.46,1437.35 1409.46,1457.88 1419.08,1474.54C1428.7,1491.21 1446.49,1501.47 1465.73,1501.47L1465.73,1501.47C1494.81,1501.47 1518.39,1525.05 1518.39,1554.13L1518.39,1555.36C1518.39,1584.44 1494.81,1608.02 1465.73,1608.02C1465.73,1608.02 1465.73,1608.02 1465.73,1608.02C1446.49,1608.02 1428.7,1618.29 1419.08,1634.95C1409.46,1651.62 1409.46,1672.15 1419.08,1688.81C1419.08,1688.81 1419.08,1688.81 1419.08,1688.81C1433.62,1714 1425,1746.21 1399.81,1760.75C1399.45,1760.95 1399.1,1761.16 1398.75,1761.36C1373.56,1775.9 1341.35,1767.27 1326.81,1742.09C1326.81,1742.09 1326.81,1742.09 1326.81,1742.09C1317.19,1725.42 1299.41,1715.15 1280.16,1715.15C1260.92,1715.15 1243.14,1725.42 1233.52,1742.09C1233.52,1742.09 1233.52,1742.09 1233.52,1742.09C1218.98,1767.27 1186.77,1775.9 1161.58,1761.36C1161.23,1761.16 1160.87,1760.95 1160.52,1760.75C1135.33,1746.21 1126.7,1714 1141.25,1688.81C1141.25,1688.81 1141.25,1688.81 1141.25,1688.81C1150.87,1672.15 1150.87,1651.62 1141.25,1634.95C1131.62,1618.29 1113.84,1608.02 1094.6,1608.02L1094.6,1608.02C1065.52,1608.02 1041.94,1584.44 1041.94,1555.36C1041.94,1554.95 1041.94,1554.54 1041.94,1554.13C1041.94,1525.05 1065.52,1501.47 1094.6,1501.47L1094.6,1501.47C1113.84,1501.47 1131.62,1491.21 1141.25,1474.54C1150.87,1457.88 1150.87,1437.35 1141.25,1420.68C1141.25,1420.68 1141.25,1420.68 1141.25,1420.68C1126.7,1395.49 1135.33,1363.28 1160.52,1348.74C1160.87,1348.54 1161.23,1348.33 1161.58,1348.13C1186.77,1333.59 1218.98,1342.22 1233.52,1367.4C1233.52,1367.4 1233.52,1367.41 1233.52,1367.41C1243.14,1384.07 1260.92,1394.34 1280.16,1394.34C1299.41,1394.34 1317.19,1384.07 1326.81,1367.41C1326.81,1367.41 1326.81,1367.4 1326.81,1367.4Z" style="fill:rgb(58,85,145);"/></g><g transform="matrix(0.120539,-0.0861446,0.668094,0.934843,-333.233,98.6787)"><path d="M3075.44,1521.91L1973.45,1521.91L1973.45,1630.72L3075.44,1630.72C3298.41,1593.86 3321.39,1557.53 3075.44,1521.91Z" style="fill:rgb(69,101,172);"/></g><g transform="matrix(0.121451,-0.0764209,0.0664308,0.105575,734.627,1373.15)"><ellipse cx="1251.08" cy="1142.21" rx="312.25" ry="515.096" style="fill:rgb(142,187,229);"/></g><g transform="matrix(0.121451,-0.0764209,0.0664308,0.105575,734.627,1373.15)"><ellipse cx="1251.08" cy="1142.21" rx="312.25" ry="515.096" style="fill:url(#_Linear17);"/></g><path d="M986.377,1304.07C987.551,1303.07 988.804,1302.15 990.133,1301.31C1011.06,1288.14 1043.08,1301.32 1061.58,1330.72C1080.08,1360.12 1078.1,1394.69 1057.17,1407.86C1056.88,1408.04 1056.59,1408.22 1056.3,1408.39C1073.64,1393.61 1074.27,1361.55 1056.94,1334.02C1038.7,1305.02 1007.32,1291.81 986.377,1304.07Z" style="fill:rgb(52,77,131);"/><g transform="matrix(1,0,0,1,-26.5215,20.006)"><path d="M986.377,1304.07C987.551,1303.07 988.804,1302.15 990.133,1301.31C1011.06,1288.14 1043.08,1301.32 1061.58,1330.72C1080.08,1360.12 1078.1,1394.69 1057.17,1407.86C1056.88,1408.04 1056.59,1408.22 1056.3,1408.39C1073.64,1393.61 1074.27,1361.55 1056.94,1334.02C1038.7,1305.02 1007.32,1291.81 986.377,1304.07Z" style="fill:rgb(52,77,131);"/></g><g transform="matrix(1,0,0,1,30.7412,-20.6039)"><path d="M986.377,1304.07C987.551,1303.07 988.804,1302.15 990.133,1301.31C1011.06,1288.14 1043.08,1301.32 1061.58,1330.72C1080.08,1360.12 1078.1,1394.69 1057.17,1407.86C1056.88,1408.04 1056.59,1408.22 1056.3,1408.39C1073.64,1393.61 1074.27,1361.55 1056.94,1334.02C1038.7,1305.02 1007.32,1291.81 986.377,1304.07Z" style="fill:rgb(52,77,131);"/></g></g></g></g></g><defs><linearGradient id="_Linear2" x1="0" y1="0" x2="1" y2="0" gradientUnits="userSpaceOnUse" gradientTransform="matrix(1546.36,1477.19,-746.914,790.615,1573.11,845.445)"><stop offset="0" style="stop-color:rgb(174,34,90);stop-opacity:0"/><stop offset="1" style="stop-color:rgb(174,34,90);stop-opacity:1"/></linearGradient><linearGradient id="_Linear3" x1="0" y1="0" x2="1" y2="0" gradientUnits="userSpaceOnUse" gradientTransform="matrix(-824.362,-967.919,564.959,-343.015,2384.9,1285.3)"><stop offset="0" style="stop-color:white;stop-opacity:0"/><stop offset="1" style="stop-color:white;stop-opacity:1"/></linearGradient><linearGradient id="_Linear4" x1="0" y1="0" x2="1" y2="-0.353354" gradientUnits="userSpaceOnUse" gradientTransform="matrix(-120.883,-402.236,402.236,-120.883,2377.75,897.813)"><stop offset="0" style="stop-color:white;stop-opacity:0"/><stop offset="1" style="stop-color:white;stop-opacity:1"/></linearGradient><linearGradient id="_Linear5" x1="0" y1="0" x2="1" y2="0.025835" gradientUnits="userSpaceOnUse" gradientTransform="matrix(172.578,-948.417,824.436,198.531,1498.03,1287.37)"><stop offset="0" style="stop-color:white;stop-opacity:0"/><stop offset="1" style="stop-color:white;stop-opacity:1"/></linearGradient><linearGradient id="_Linear6" x1="0" y1="0" x2="1" y2="0.029849" gradientUnits="userSpaceOnUse" gradientTransform="matrix(101.601,-417.846,417.846,101.601,2109.83,977.922)"><stop offset="0" style="stop-color:black;stop-opacity:0"/><stop offset="1" style="stop-color:black;stop-opacity:1"/></linearGradient><linearGradient id="_Linear7" x1="0" y1="0" x2="1" y2="0.025835" gradientUnits="userSpaceOnUse" gradientTransform="matrix(172.578,-948.417,824.436,198.531,1498.03,1287.37)"><stop offset="0" style="stop-color:white;stop-opacity:0"/><stop offset="1" style="stop-color:white;stop-opacity:1"/></linearGradient><linearGradient id="_Linear8" x1="0" y1="0" x2="1" y2="0.0299221" gradientUnits="userSpaceOnUse" gradientTransform="matrix(147.812,455.291,-548.204,292.457,1308.2,1429.45)"><stop offset="0" style="stop-color:rgb(30,113,158);stop-opacity:0"/><stop offset="1" style="stop-color:rgb(30,113,158);stop-opacity:1"/></linearGradient><linearGradient id="_Linear9" x1="0" y1="0" x2="1" y2="0.0266796" gradientUnits="userSpaceOnUse" gradientTransform="matrix(-347.707,1741.86,-1514.16,-399.997,1820.78,814.022)"><stop offset="0" style="stop-color:rgb(30,113,158);stop-opacity:0"/><stop offset="1" style="stop-color:rgb(30,113,158);stop-opacity:1"/></linearGradient><linearGradient id="_Linear10" x1="0" y1="0" x2="1" y2="0" gradientUnits="userSpaceOnUse" gradientTransform="matrix(172.578,-948.417,824.436,198.531,1498.03,1287.37)"><stop offset="0" style="stop-color:white;stop-opacity:0"/><stop offset="1" style="stop-color:white;stop-opacity:1"/></linearGradient><linearGradient id="_Linear11" x1="0" y1="0" x2="1" y2="0" gradientUnits="userSpaceOnUse" gradientTransform="matrix(101.601,-417.846,417.846,101.601,2109.83,977.922)"><stop offset="0" style="stop-color:black;stop-opacity:0"/><stop offset="1" style="stop-color:black;stop-opacity:1"/></linearGradient><linearGradient id="_Linear12" x1="0" y1="0" x2="1" y2="0" gradientUnits="userSpaceOnUse" gradientTransform="matrix(172.578,-948.417,824.436,198.531,1498.03,1287.37)"><stop offset="0" style="stop-color:white;stop-opacity:0"/><stop offset="1" style="stop-color:white;stop-opacity:1"/></linearGradient><linearGradient id="_Linear13" x1="0" y1="0" x2="1" y2="0" gradientUnits="userSpaceOnUse" gradientTransform="matrix(147.812,455.291,-548.204,292.457,1308.2,1429.45)"><stop offset="0" style="stop-color:rgb(30,113,158);stop-opacity:0"/><stop offset="1" style="stop-color:rgb(30,113,158);stop-opacity:1"/></linearGradient><linearGradient id="_Linear14" x1="0" y1="0" x2="1" y2="0" gradientUnits="userSpaceOnUse" gradientTransform="matrix(-347.707,1741.86,-1514.16,-399.997,1820.78,814.022)"><stop offset="0" style="stop-color:rgb(30,113,158);stop-opacity:0"/><stop offset="1" style="stop-color:rgb(30,113,158);stop-opacity:1"/></linearGradient><linearGradient id="_Linear15" x1="0" y1="0" x2="1" y2="0" gradientUnits="userSpaceOnUse" gradientTransform="matrix(172.578,-948.417,824.436,198.531,1498.03,1287.37)"><stop offset="0" style="stop-color:white;stop-opacity:0"/><stop offset="1" style="stop-color:white;stop-opacity:1"/></linearGradient><linearGradient id="_Linear16" x1="0" y1="0" x2="1" y2="0" gradientUnits="userSpaceOnUse" gradientTransform="matrix(147.812,455.291,-548.204,292.457,1308.2,1429.45)"><stop offset="0" style="stop-color:rgb(30,113,158);stop-opacity:0"/><stop offset="1" style="stop-color:rgb(30,113,158);stop-opacity:1"/></linearGradient><linearGradient id="_Linear17" x1="0" y1="0" x2="1" y2="0" gradientUnits="userSpaceOnUse" gradientTransform="matrix(-347.707,1741.86,-1514.16,-399.997,1820.78,814.022)"><stop offset="0" style="stop-color:rgb(30,113,158);stop-opacity:0"/><stop offset="1" style="stop-color:rgb(30,113,158);stop-opacity:1"/></linearGradient></defs></svg>