<svg id="Layer_1" data-name="Layer 1" xmlns="http://www.w3.org/2000/svg" xmlns:xlink="http://www.w3.org/1999/xlink" viewBox="0 0 4500 2500"><defs><style>.cls-1{fill:none;}.cls-2{fill:#aed3f0;}.cls-3{fill:#c3dcf3;}.cls-10,.cls-11,.cls-12,.cls-13,.cls-14,.cls-15,.cls-18,.cls-19,.cls-22,.cls-23,.cls-25,.cls-26,.cls-27,.cls-3,.cls-30,.cls-31,.cls-32,.cls-33,.cls-34,.cls-35,.cls-36,.cls-37,.cls-40,.cls-43,.cls-46,.cls-5,.cls-7,.cls-8,.cls-9{fill-rule:evenodd;}.cls-4{clip-path:url(#clip-path);}.cls-5,.cls-6{opacity:0.15;}.cls-7{fill:#f8c3d8;}.cls-8{fill:#f39cbe;}.cls-9{fill:#ec6198;}.cls-10{fill:url(#linear-gradient);}.cls-11{fill:#cd3471;}.cls-12{fill:url(#linear-gradient-2);}.cls-13{fill:#d05988;}.cls-14,.cls-16{fill:#4067b1;}.cls-15{fill:#2f4b82;}.cls-17,.cls-32{fill:#fff;}.cls-18{fill:url(#linear-gradient-3);}.cls-19{fill:#d3a869;}.cls-20{fill:#ebd063;}.cls-21{fill:url(#linear-gradient-4);}.cls-22{fill:url(#linear-gradient-5);}.cls-23{fill:#3a5591;}.cls-24{fill:url(#linear-gradient-6);}.cls-25,.cls-28{fill:#8ebbe5;}.cls-26{fill:url(#linear-gradient-7);}.cls-27{fill:#4565ac;}.cls-29{fill:url(#linear-gradient-8);}.cls-30{fill:#344d83;}.cls-31{fill:#e8f6ff;}.cls-33{fill:#d1edff;}.cls-34{fill:#54bafb;}.cls-35{fill:#2d4584;}.cls-36{fill:#d4e5f5;}.cls-37{fill:#05837c;}.cls-38{fill:#44ae9e;}.cls-39{fill:url(#linear-gradient-9);}.cls-40{fill:url(#linear-gradient-10);}.cls-41{fill:url(#linear-gradient-11);}.cls-42{fill:#53bcac;}.cls-43{fill:url(#linear-gradient-12);}.cls-44{fill:url(#linear-gradient-13);}.cls-45{fill:url(#linear-gradient-14);}.cls-46{fill:url(#linear-gradient-15);}.cls-47{fill:url(#linear-gradient-16);}</style><clipPath id="clip-path"><rect class="cls-1" width="4499.99" height="2500"/></clipPath><linearGradient id="linear-gradient" x1="1289.63" y1="1789.57" x2="1290.81" y2="1789.57" gradientTransform="matrix(406.89, 2423.44, 2423.45, -406.91, -4860324.03, -2395857.8)" gradientUnits="userSpaceOnUse"><stop offset="0" stop-color="#ae225a" stop-opacity="0"/><stop offset="1" stop-color="#ae225a"/></linearGradient><linearGradient id="linear-gradient-2" x1="1290.41" y1="1790.78" x2="1291.59" y2="1790.78" gradientTransform="matrix(-22.91, -1477.81, -1477.81, 22.92, 2677476.5, 1868140.35)" gradientUnits="userSpaceOnUse"><stop offset="0" stop-color="#fff" stop-opacity="0"/><stop offset="1" stop-color="#fff"/></linearGradient><linearGradient id="linear-gradient-3" x1="1291" y1="1791.59" x2="1292.19" y2="1792.01" gradientTransform="matrix(374.83, -484.6, -872.97, -110.61, 1082288.87, 825515.83)" xlink:href="#linear-gradient-2"/><linearGradient id="linear-gradient-4" x1="1291.68" y1="1787.47" x2="1292.87" y2="1787.43" gradientTransform="matrix(453.96, -96.74, 105.77, 441.34, -774045.13, -663844.65)" xlink:href="#linear-gradient-2"/><linearGradient id="linear-gradient-5" x1="1296.59" y1="1786.98" x2="1297.77" y2="1786.94" gradientTransform="matrix(-88.86, -181.6, 181.53, -95.75, -207637.15, 406809.67)" gradientUnits="userSpaceOnUse"><stop offset="0" stop-opacity="0"/><stop offset="1"/></linearGradient><linearGradient id="linear-gradient-6" x1="1291.53" y1="1787.84" x2="1292.72" y2="1787.81" gradientTransform="matrix(481.59, -102.63, 112.21, 468.2, -820589.07, -704215.68)" xlink:href="#linear-gradient-2"/><linearGradient id="linear-gradient-7" x1="1285.44" y1="1795.64" x2="1286.62" y2="1795.61" gradientTransform="matrix(-6.2, 193.88, -190.77, -0.49, 352635.42, -248076.84)" gradientUnits="userSpaceOnUse"><stop offset="0" stop-color="#1e719e" stop-opacity="0"/><stop offset="1" stop-color="#1e719e"/></linearGradient><linearGradient id="linear-gradient-8" x1="1283.11" y1="1800.11" x2="1284.3" y2="1800.08" gradientTransform="matrix(-110.28, 25.69, -27.96, -107.24, 194076.79, 160417.67)" xlink:href="#linear-gradient-7"/><linearGradient id="linear-gradient-9" x1="1291.96" y1="1791.74" x2="1293.14" y2="1791.74" gradientTransform="matrix(124.12, -605.52, -605.51, -124.12, 925547, 1005339.83)" xlink:href="#linear-gradient-2"/><linearGradient id="linear-gradient-10" x1="1291.72" y1="1795.33" x2="1292.9" y2="1795.33" gradientTransform="matrix(64.81, -266.54, -266.54, -64.81, 395714.94, 461525.48)" xlink:href="#linear-gradient-5"/><linearGradient id="linear-gradient-11" x1="1291.79" y1="1791.87" x2="1292.98" y2="1791.87" gradientTransform="matrix(131.67, -642.37, -642.37, -131.67, 981162.01, 1066900.45)" xlink:href="#linear-gradient-2"/><linearGradient id="linear-gradient-12" x1="1285.85" y1="1785.41" x2="1287.03" y2="1785.41" gradientTransform="matrix(63.89, 251.05, 251.05, -63.89, -530218.48, -207670.13)" xlink:href="#linear-gradient-7"/><linearGradient id="linear-gradient-13" x1="1282.3" y1="1782.55" x2="1283.48" y2="1782.55" gradientTransform="matrix(-33.15, 147.17, 147.17, 33.15, -219785.12, -246629.02)" xlink:href="#linear-gradient-7"/><linearGradient id="linear-gradient-14" x1="1291.22" y1="1791.06" x2="1292.4" y2="1791.06" gradientTransform="matrix(131.67, -642.37, -642.37, -131.67, 984777.99, 1067501.43)" xlink:href="#linear-gradient-2"/><linearGradient id="linear-gradient-15" x1="1287.08" y1="1787.59" x2="1288.26" y2="1787.59" gradientTransform="matrix(63.89, 251.05, 251.05, -63.89, -526786.58, -206763.53)" xlink:href="#linear-gradient-7"/><linearGradient id="linear-gradient-16" x1="1284.72" y1="1786.1" x2="1285.91" y2="1786.1" gradientTransform="matrix(-33.15, 147.17, 147.17, 33.15, -216169.14, -246028.04)" xlink:href="#linear-gradient-7"/></defs><rect class="cls-2" x="0.01" width="4499.99" height="2500"/><path class="cls-3" d="M277.9,2500H4500V2264.3q-39.49,7.32-78.22,12.12c-167.13,20.72-336.54-14.85-503.08-17.34-167.2-2.49-337,18.21-503.29-8.95-413.31-67.5-816.47-201.13-1229.31-275.45-307.53-55.36-634.5-130-948.2-105C819.27,1903.23,442.85,2126.39,277.9,2500ZM4500,261V0H224c155.64,274.71,627.89,540.94,859.65,610,172.42,51.34,365,65.24,541.52,33.68,287.79-51.46,596-69.48,876.07-154.25,311.33-94.21,617.15-238.78,938.7-296.36,154.69-27.7,317.51-21.63,474-21.63C4137.52,171.39,4333.81,196.39,4500,261ZM1.88,0,0,1.58V0Z"/><rect class="cls-1" width="4499.99" height="2500"/><g class="cls-4"><path class="cls-5" d="M3455.55,2121c45-32,38-72.73-15.76-90.9L1629.16,1417.88c-53.76-18.17-133.93-6.94-179,25.07L-156.59,2584.79c-45,32-38,72.74,15.75,90.92l1810.63,612.18c53.75,18.17,133.94,6.93,179-25.08Z"/><ellipse class="cls-6" cx="370.32" cy="1394.62" rx="1143.67" ry="183.27" transform="translate(-646.15 370.47) rotate(-29.91)"/><ellipse class="cls-6" cx="1924.25" cy="479.63" rx="152.44" ry="607.53" transform="translate(816.32 2124.4) rotate(-70.03)"/><path class="cls-7" d="M3380.82,2031.26c21.43-15.23,21.91-32.4,8.12-133.57-8.7-63.67-13.32-143.63-27-139.86l-1891-358.9c-53.75-18.18-133.93-6.94-179,25.06L-416.13,2342.1c-11.15,8.44-1,98.09,3.28,177.93,5.27,98.72,11.72,127.38,41.37,137.16l1883,611.75c53.75,18.17,133.93,6.93,179-25.08Z"/><path class="cls-8" d="M3388.26,1895c1.69,10.72,3.39,21.18,4.13,32.31L1689.94,3137.08c-46.53,33.09-129.42,44.69-185,25.92L-413.21,2514.44c-.69-12.05-.9-20.31-1.29-31.55l1918.81,648.76c53.73,18.18,133.93,6.95,179-25.05Zm-1749-45.52c332.36-48.36,670.06-66.5,1008.67-50,6.5.33,13.2.61,20.12.9l-788.65,263.78c-75.08,25.12-163.57,27.45-227,6S1562,2007.28,1583.21,1964Z"/><path class="cls-9" d="M3283.16,1834.43c45-32,38-72.73-15.77-90.91L1456.76,1131.34c-53.75-18.17-133.93-6.94-179,25.07L-329,2298.25c-45,32-38,72.74,15.75,90.91l1810.63,612.19c53.75,18.17,133.94,6.93,179-25.08Z"/><path class="cls-10" d="M3283.16,1834.43c45-32,38-72.73-15.77-90.91L1456.76,1131.34c-53.75-18.17-133.93-6.94-179,25.07L-329,2298.25c-45,32-38,72.74,15.75,90.91l1810.63,612.19c53.75,18.17,133.94,6.93,179-25.08Z"/><path class="cls-11" d="M2679.24,1589.58l-871.39-202.44c21.27-38.8,28.37-72.9-5-93.55L1475,1182.42c-53.75-18.16-133.93-6.93-179,25.07L-310.72,2349.33c-12.8,9.11-21.4,18.92-25.9,28.71-31.24-20.7-29.73-53.25,7.63-79.8L1277.79,1156.4c45-32,125.22-43.24,179-25.07l1810.65,612.2c38.44,13,53,37.56,41.66,62.19a100.53,100.53,0,0,0-23.38-11.1l-318.57-106.74a321.79,321.79,0,0,0-198.39-2c-226.89,71.16-776.69,243.29-949,294.54-115,34.22-283-9.6-253.56-113.27s254.59-232.28,254.59-232.28Z"/><path class="cls-8" d="M3343.7,1826.66c46.55-33.08,39.24-75.18-16.29-94L1456.07,1100c-55.53-18.78-138.42-7.17-185,25.9L-389.54,2306c-46.54,33.07-39.23,75.18,16.3,93.95L1498.1,3032.68c55.53,18.78,138.42,7.17,185-25.9Zm-487-222-984.12,329.16c-75.09,25.11-163.57,27.44-227,6s-90.42-62.82-69.2-106.15l278.11-567.86-397.68-134.46c-53.73-18.16-133.94-6.94-179,25.07L-329,2298.24c-45.05,32-38,72.74,15.77,90.91l1810.64,612.19c53.74,18.17,133.92,6.94,179-25.07L3283.16,1834.43c45-32,38-72.74-15.77-90.91Z"/><path class="cls-12" d="M3343.7,1826.66c46.55-33.08,39.24-75.18-16.29-94L1456.07,1100c-55.53-18.78-138.42-7.17-185,25.9L-389.54,2306c-46.54,33.07-39.23,75.18,16.3,93.95L1498.1,3032.68c55.53,18.78,138.42,7.17,185-25.9Zm-341.78-172.89a455.93,455.93,0,0,0-290.68-.49l-838.69,280.53c-75.09,25.11-163.57,27.44-227,6s-90.42-62.82-69.2-106.15c0,0,168.56-344.19,243.23-496.64a69.61,69.61,0,0,0-40.07-96.56l-322.73-109.12c-53.73-18.16-133.94-6.94-179,25.07L-329,2298.24c-45.05,32-38,72.74,15.77,90.91l1810.64,612.19c53.74,18.17,133.92,6.94,179-25.07L3283.16,1834.43c45-32,38-72.74-15.77-90.91Z"/><path class="cls-8" d="M1885.48,1384.35l-120.75,248.37c209.82,1.73,355.68,49.46,428.34,149.92l428.6-142.49Q2374.56,1432,1885.48,1384.35Z"/><path class="cls-13" d="M1781.38,1633l113-232.46q473,46,719.57,242.21l7.7-2.56q-247.11-208.1-736.19-255.8l-120.75,248.38C1770.33,1632.76,1775.89,1632.84,1781.38,1633Z"/><path class="cls-14" d="M1913,1443.7l12.94-26.4c1.47-3-1.81-5.61-7.35-5.85s-11.2,2-12.68,5l-12.95,26.39c-1.46,3,1.84,5.62,7.36,5.85S1911.49,1446.69,1913,1443.7Zm608.38,204.78,46.15-14.86c5.24-1.69,7.61-5.07,5.31-7.56s-8.42-3.13-13.67-1.45L2513,1639.48c-5.24,1.68-7.62,5.07-5.31,7.56S2516.08,1650.17,2521.33,1648.48Zm-21.81-23.78,19.36-8.17c4.83-2,6.29-5.48,3.22-7.68s-9.46-2.35-14.3-.31l-19.38,8.16c-4.83,2-6.26,5.49-3.2,7.69S2494.69,1626.74,2499.52,1624.7Zm-520.18-184,10.5-14.83c2.09-2.95-.55-5.8-5.88-6.38s-11.35,1.36-13.44,4.3l-10.47,14.84c-2.09,3,.55,5.81,5.88,6.38S1977.26,1443.62,1979.34,1440.67Zm485,160.82,18.33-8.81c4.58-2.21,5.5-5.66,2.08-7.69s-9.93-1.91-14.51.29l-18.31,8.82c-4.58,2.2-5.5,5.65-2.08,7.69S2459.74,1603.7,2464.3,1601.49Zm-53.71-19.73,41.58-19.38c4.64-2.16,5.71-5.6,2.35-7.69s-9.81-2-14.46.15l-41.57,19.38c-4.63,2.17-5.69,5.61-2.36,7.69S2406,1583.92,2410.59,1581.76Zm-312.87-112.71,20.63-27.22c2.22-2.93-.26-5.83-5.54-6.48s-11.35,1.2-13.57,4.13l-20.61,27.22c-2.22,2.94.26,5.84,5.52,6.49S2095.5,1472,2097.72,1469.05Zm-52.3-20.56,8.92-15c1.77-3-1.22-5.72-6.65-6.11s-11.31,1.69-13.06,4.68l-8.92,15c-1.76,3,1.22,5.71,6.68,6.12S2043.68,1451.47,2045.42,1448.49Zm230.35,72,32.66-22.93c3.7-2.61,3.18-5.93-1.18-7.43s-10.91-.61-14.61,2L2260,1515c-3.71,2.59-3.17,5.93,1.17,7.42S2272.05,1523,2275.77,1520.44Zm109.11,35.84,17.87-9.62c4.32-2.34,4.81-5.76,1.08-7.65s-10.29-1.52-14.61.82l-17.85,9.63c-4.34,2.33-4.83,5.76-1.1,7.64S2380.56,1558.62,2384.88,1556.28Zm-43.43-20.92,17.86-9.62c4.32-2.34,4.82-5.77,1.09-7.65s-10.3-1.52-14.62.82l-17.86,9.62c-4.33,2.34-4.82,5.77-1.09,7.65S2337.13,1537.7,2341.45,1535.36ZM2177.11,1475l10.76-13.6c2.3-2.93-.07-5.86-5.3-6.56s-11.35,1.11-13.67,4l-10.76,13.61c-2.3,2.92.07,5.86,5.29,6.55S2174.79,1477.91,2177.11,1475Zm53.09,15.14,12.88-11.72c3.05-2.79,1.61-6-3.22-7.08s-11.23.22-14.28,3l-12.9,11.71c-3,2.79-1.62,6,3.21,7.08S2227.13,1492.92,2230.2,1490.14Z"/><path class="cls-14" d="M2075.48,1631c-4.19,1-7.69,2.76-9.61,4.94s-2.08,4.53-.4,6.43l19.88,22.7c1.68,1.92,5.05,3.2,9.2,3.5a28.29,28.29,0,0,0,12.39-1.94c28.89-11.89,158.23-60.15,212.69-82.57,6.29-2.6,8.82-6.91,5.93-10.15s-10.35-4.43-17.5-2.79C2246.23,1585.23,2108.07,1623.49,2075.48,1631Z"/><path class="cls-15" d="M1932.36,1745.92c9.84,3.33,14.62-10.58,19.21-5.29,10.66,12.28,9.36,44.91-9.75,58.49-27.35,19.43-82.73,26-115.38,15-21.22-7.17-26-37.14-22.38-50.68,2-7.27,10.07,4.54,19.64-2.26C1851,1741.71,1899.73,1734.89,1932.36,1745.92Z"/><ellipse class="cls-16" cx="1879.65" cy="1758.72" rx="77.62" ry="39.59" transform="translate(-208.63 253.64) rotate(-7.32)"/><ellipse class="cls-17" cx="1897" cy="1297.54" rx="20.47" ry="10.44" transform="translate(-149.77 252.1) rotate(-7.32)"/><ellipse class="cls-17" cx="2746.11" cy="1586.12" rx="20.47" ry="10.44" transform="translate(-179.6 362.56) rotate(-7.32)"/><path class="cls-15" d="M1832.3,1759.34s17.21,20.51,53.54,13.14c35.78-7.25,43.38-30.36,43.38-30.36s-21.28-39.34-59.08-30.55C1830.78,1720.74,1832.3,1759.34,1832.3,1759.34Z"/><path class="cls-18" d="M2480.29,1544.64q78.51,42.55,141.38,95.51l-46.83,15.56c-166.36,8.91-334.49,18.36-501.75,32.07-78.06-36.16-181.53-54-308.36-55.06l8.09-16.66C2007.53,1586.87,2244.69,1562.05,2480.29,1544.64Zm-310.95-114.42a1484.91,1484.91,0,0,1,151.36,44.22c-170.43,16.45-340.43,36.56-509.94,63.61l31.27-64.33c3.53-.51,6.88-1,10-1.47C1958.07,1456.37,2063.63,1442.07,2169.34,1430.22Z"/><path class="cls-8" d="M2165.74,2184.37c-78.56-45.93-166.31-53-219-48.09-107.49,10.08-172.22,31.59-234.25,81.64-76.4,61.66-16.44,131.31-66.35,186-41.7,45.69-113.05,88.56-192.42,118.85-134.62,51.36-406.09,98.49-228.53,197.86,113.32,63.39,379.26-14.91,486.13-59.62,174.34-72.94,548.39-267.31,530.59-386.37C2236.77,2240.32,2207.7,2208.92,2165.74,2184.37Zm269.92,39.79c10.45,8.89-2.24,24.06-28.34,33.89s-55.73,10.6-66.18,1.73,2.25-24.06,28.34-33.89S2425.22,2215.29,2435.66,2224.16ZM2010.37,1989.7c34.49,5.17,43.38,32,19.85,59.86s-70.63,46.27-105.1,41.1-43.38-32-19.85-59.85S1975.88,1984.54,2010.37,1989.7ZM2423,2152.51c14.91,10.83,1.17,30.44-30.64,43.77s-69.73,15.38-84.62,4.57-1.17-30.44,30.63-43.77S2408.12,2141.7,2423,2152.51ZM2312.22,2092c21.39,7.29,19.07,27.1-5.17,44.21s-61.28,25.1-82.66,17.81-19-27.12,5.17-44.24S2290.81,2084.69,2312.22,2092ZM2187,2043.69c21.39,7.29,19.07,27.11-5.15,44.23s-61.27,25.09-82.66,17.8-19.07-27.12,5.17-44.24S2165.61,2036.4,2187,2043.69Z"/><path class="cls-8" d="M999.54,1790.07c115.5,19.68,160.18,57.38,169.51,83.27,19,52.83.94,90.13-72.48,136.33-90.45,56.92-244.58,54.18-331.08,96.46-72.32,35.34-128.73,83.26-158.3,130.39-50.14,79.93-43.59,221.06-296.15,175-161.14-29.41-106.28-179.08-59-243.93,77.18-105.79,315-346.23,548.36-380.36C867.61,1777.4,937.83,1779.57,999.54,1790.07ZM827.79,1680.53c-20.66-1.63-45.1,9.57-54.57,25s-.4,29.3,20.21,30.94,45.09-9.58,54.57-25S848.4,1682.16,827.79,1680.53ZM1426,1792.11c-22.13-14-76.42-8.51-121.21,12.17s-63.15,48.8-41,62.76,76.42,8.51,121.17-12.16S1448.08,1806.08,1426,1792.11ZM968.91,1660.88c-25.94-3-58.46,10.27-72.59,29.58s-4.56,37.42,21.36,40.4,58.46-10.28,72.59-29.59S994.83,1663.86,968.91,1660.88Zm154.78,29.26c-21.5-7.21-58.46.89-82.48,18.08s-26.1,37-4.6,44.2,58.49-.91,82.53-18.09S1145.22,1697.36,1123.69,1690.14Zm136.59,40.22c-21.5-7.21-58.47.89-82.51,18.07s-26.1,37-4.6,44.2,58.51-.9,82.53-18.08S1281.77,1737.57,1260.28,1730.36Z"/><path class="cls-19" d="M1461.16-251.54C1357.47-286.32,1242.44-194.46,1189-41.39c-35.75,102.43-32.6,213,19.68,290.21,25.85,38.2,81.07,73.82,115.38,85.33,11.79,4-20.08-28.95-7.81-28.27,95.57,5.28,201.14-85.58,248.48-221.24,44.52-127.56,69.15-221.88.94-280.86C1552.05-208,1478.44-245.75,1461.16-251.54Z"/><ellipse class="cls-20" cx="1431.28" cy="61.91" rx="293.78" ry="198.12" transform="translate(887.72 1387.41) rotate(-70.18)"/><ellipse class="cls-21" cx="1431.28" cy="61.91" rx="293.78" ry="198.12" transform="translate(887.72 1387.41) rotate(-70.18)"/><path class="cls-22" d="M1570.85,221.88,1473.61,37.94,1423.86,94.1l93.36,190.5A351.68,351.68,0,0,0,1570.85,221.88Z"/><path class="cls-23" d="M1462.6-6.74,2060,235l-41.68,100.64L1420.91,93.9C1403.44,40.86,1418.43,7.85,1462.6-6.74Z"/><path class="cls-19" d="M2086.24-47.1c-110-36.9-232,60.55-288.7,222.94-37.92,108.66-34.58,225.94,20.88,307.88,27.42,40.52,86,78.31,122.4,90.52,12.51,4.19-21.3-30.71-8.29-30,101.39,5.6,213.38-90.8,263.61-234.71,47.23-135.32,73.36-235.39,1-298C2182.66-.92,2104.57-40.95,2086.24-47.1Z"/><ellipse class="cls-20" cx="2054.55" cy="285.43" rx="311.66" ry="210.18" transform="translate(1089.38 2121.48) rotate(-70.18)"/><ellipse class="cls-24" cx="2054.55" cy="285.43" rx="311.66" ry="210.18" transform="translate(1089.38 2121.48) rotate(-70.18)"/><path class="cls-19" d="M2115.07,93.8c-70.16-23.53-148,38.62-184.14,142.2-24.19,69.3-22,144.1,13.32,196.37,17.49,25.84,54.85,49.94,78.07,57.73,8,2.68-13.59-19.59-5.29-19.13,64.67,3.58,136.1-57.91,168.13-149.7,30.13-86.31,46.79-150.13.64-190C2176.57,123.26,2126.76,97.72,2115.07,93.8Z"/><ellipse class="cls-20" cx="2094.86" cy="305.89" rx="198.78" ry="134.06" transform="translate(1096.76 2172.93) rotate(-70.18)"/><path class="cls-25" d="M2063.25,243.39c-7.73-7.53-20.12-3.87-27.69,8.15-.1.17-.2.34-.31.51-7.57,12-7.43,27.88.3,35.4h0c5.11,5,7.17,13.83,5.39,23.21s-7.11,17.87-14,22.27h0c-10.41,6.66-16.5,22.21-13.58,34.74l.12.53c2.91,12.53,6.88,8.25,19.29,14.73a135.86,135.86,0,0,0,19,7.94c6.89-4.4.1-16.08,5.22-11.1s7.17,13.82,5.39,23.2h0c-2.68,14.18,3.63,26.09,14.1,26.59l.44,0c2.7.13,25.63,11.61,28.21,10.35,7.45-3.63-6.38-24.58-4.38-35.11h0c1.78-9.39,7.11-17.88,14-22.28s14.28-4.05,19.39.93h0c7.73,7.53,20.13,3.87,27.69-8.15l.32-.51c7.56-12,7.43-27.88-.31-35.4h0c-5.11-5-7.16-13.82-5.39-23.21s7.12-17.87,14-22.27h0c10.41-6.66,24.78-12.71,21.87-25.24l-.12-.53c-.7-3,16-6.27,14.51-8.33-4.73-6.54-39-16.87-46.93-11.81h0c-6.89,4.4-14.28,4-19.4-.93s-7.17-13.82-5.39-23.2h0c1.9-10,25.14-9.15,19.75-13.67-2.23-1.88-30.79-12.77-33.86-12.92l-.44,0c-10.47-.5-21.14,10.59-23.83,24.76h0c-1.78,9.37-7.12,17.87-14,22.27s-14.28,4.05-19.4-.93Z"/><path class="cls-26" d="M2063.25,243.39c-7.73-7.53-20.12-3.87-27.69,8.15-.1.17-.2.34-.31.51-7.57,12-7.43,27.88.3,35.4h0c5.11,5,7.17,13.83,5.39,23.21s-7.11,17.87-14,22.27h0c-10.41,6.66-16.5,22.21-13.58,34.74l.12.53c2.91,12.53,6.88,8.25,19.29,14.73a135.86,135.86,0,0,0,19,7.94c6.89-4.4.1-16.08,5.22-11.1s7.17,13.82,5.39,23.2h0c-2.68,14.18,3.63,26.09,14.1,26.59l.44,0c2.7.13,25.63,11.61,28.21,10.35,7.45-3.63-6.38-24.58-4.38-35.11h0c1.78-9.39,7.11-17.88,14-22.28s14.28-4.05,19.39.93h0c7.73,7.53,20.13,3.87,27.69-8.15l.32-.51c7.56-12,7.43-27.88-.31-35.4h0c-5.11-5-7.16-13.82-5.39-23.21s7.12-17.87,14-22.27h0c10.41-6.66,24.78-12.71,21.87-25.24l-.12-.53c-.7-3,16-6.27,14.51-8.33-4.73-6.54-39-16.87-46.93-11.81h0c-6.89,4.4-14.28,4-19.4-.93s-7.17-13.82-5.39-23.2h0c1.9-10,25.14-9.15,19.75-13.67-2.23-1.88-30.79-12.77-33.86-12.92l-.44,0c-10.47-.5-21.14,10.59-23.83,24.76h0c-1.78,9.37-7.12,17.87-14,22.27s-14.28,4.05-19.4-.93Z"/><path class="cls-23" d="M2093,254c-7.72-7.52-20.12-3.87-27.68,8.16l-.32.51c-7.56,12-7.43,27.87.3,35.4h0c5.12,5,7.17,13.83,5.4,23.21s-7.12,17.87-14,22.27h0c-10.41,6.65-16.49,22.21-13.58,34.74l.12.53c2.91,12.53,13.72,17.29,24.13,10.64h0c6.89-4.4,14.29-4.05,19.4.93s7.17,13.82,5.39,23.2h0c-2.68,14.18,3.63,26.09,14.1,26.59l.45,0c10.47.5,21.14-10.59,23.82-24.76h0c1.78-9.39,7.12-17.88,14-22.28s14.28-4.05,19.4.93h0c7.72,7.52,20.12,3.87,27.68-8.15.11-.17.22-.34.32-.51,7.56-12,7.43-27.88-.3-35.4h0c-5.12-5-7.17-13.83-5.4-23.21s7.12-17.87,14-22.27h0c10.41-6.66,16.49-22.21,13.58-34.74l-.12-.53c-2.91-12.53-13.72-17.29-24.13-10.64h0c-6.89,4.4-14.28,4.05-19.4-.93s-7.17-13.82-5.39-23.21h0c2.69-14.18-3.63-26.08-14.1-26.58l-.45,0c-10.47-.5-21.14,10.59-23.82,24.76h0c-1.78,9.38-7.12,17.88-14,22.28S2098.07,259,2093,254Z"/><path class="cls-27" d="M2149,283.22,2237.51,319l-29,69.93L2120,353.15C2111.93,322.22,2119.76,298.12,2149,283.22Z"/><ellipse class="cls-28" cx="2219.81" cy="352.27" rx="38.87" ry="26.22" transform="translate(1135.72 2321.13) rotate(-70.18)"/><ellipse class="cls-29" cx="2219.81" cy="352.27" rx="38.87" ry="26.22" transform="translate(1135.72 2321.13) rotate(-70.18)"/><path class="cls-30" d="M2194.11,301a17.94,17.94,0,0,0-2.51-1.05c-13.72-4.6-30.49,7.77-37.41,27.61s-1.41,39.69,12.31,44.3l.57.18c-11.86-6.07-16.28-24.65-9.79-43.24C2164.1,309.21,2180.5,296.91,2194.11,301Z"/><path class="cls-30" d="M2211.92,308.75a20,20,0,0,0-2.52-1.06c-13.72-4.6-30.48,7.78-37.41,27.62s-1.4,39.69,12.32,44.29c.19.06.38.13.57.18-11.86-6.06-16.29-24.65-9.8-43.23C2181.91,317,2198.3,304.68,2211.92,308.75Z"/><path class="cls-30" d="M2173.8,293.49a19.27,19.27,0,0,0-2.51-1.06c-13.72-4.6-30.49,7.78-37.41,27.62s-1.41,39.69,12.31,44.29q.29.11.57.18c-11.86-6.06-16.28-24.65-9.79-43.23C2143.79,301.72,2160.19,289.42,2173.8,293.49Z"/><path class="cls-31" d="M3035.74,74.09c.18-29.71,21.47-46.7,47.5-37.93L4370,469.66c26,8.77,47,40,46.87,69.73l-3.9,845.44c-.18,29.71-21.47,46.69-47.5,37.92L3078.69,989.25c-26-8.77-47-40-46.87-69.72Z"/><polygon class="cls-32" points="3484.51 924.05 3262.73 849.34 3262.66 860.42 3484.44 935.13 3484.51 924.05"/><polygon class="cls-32" points="3527.93 931.38 3501.19 922.37 3501.03 950.47 3527.76 959.48 3527.93 931.38"/><polygon class="cls-32" points="4114.61 1136.33 3892.83 1061.61 3892.77 1072.69 4114.54 1147.41 4114.61 1136.33"/><polygon class="cls-32" points="4158.03 1143.65 4131.3 1134.64 4131.13 1162.74 4157.87 1171.75 4158.03 1143.65"/><polygon class="cls-32" points="3484.16 983.22 3262.38 908.51 3262.32 919.59 3484.09 994.3 3484.16 983.22"/><polygon class="cls-32" points="3527.58 990.54 3500.84 981.54 3500.68 1009.64 3527.42 1018.65 3527.58 990.54"/><polygon class="cls-32" points="4114.26 1195.49 3892.49 1120.78 3892.42 1131.86 4114.19 1206.58 4114.26 1195.49"/><polygon class="cls-32" points="4157.69 1202.82 4130.95 1193.81 4130.78 1221.91 4157.52 1230.92 4157.69 1202.82"/><polygon class="cls-32" points="3483.81 1042.39 3262.03 967.68 3261.97 978.76 3483.74 1053.47 3483.81 1042.39"/><polygon class="cls-32" points="3527.23 1049.71 3500.49 1040.71 3500.33 1068.81 3527.07 1077.82 3527.23 1049.71"/><polygon class="cls-32" points="4113.91 1254.66 3892.14 1179.95 3892.07 1191.03 4113.85 1265.74 4113.91 1254.66"/><polygon class="cls-32" points="4157.34 1261.99 4130.6 1252.98 4130.43 1281.08 4157.17 1290.09 4157.34 1261.99"/><path class="cls-33" d="M3170.11,225.67c.12-20.78,15-32.66,33.21-26.53l426.46,143.67c18.21,6.13,32.89,28,32.77,48.75l-3,504.87c-.12,20.76-15,32.66-33.21,26.52L3199.9,779.29c-18.2-6.14-32.89-28-32.77-48.76Z"/><polygon class="cls-32" points="3629.97 860.73 3606.44 852.81 3606.28 879.65 3629.81 887.58 3629.97 860.73"/><polygon class="cls-34" points="3587.14 846.3 3563.61 838.38 3563.45 865.22 3586.98 873.15 3587.14 846.3"/><path class="cls-25" d="M3219.32,550.5c27.24,128.35,134.14,235.2,238.57,238.45S3625,690.62,3597.77,562.27s-134.13-235.21-238.56-238.46S3192.09,422.14,3219.32,550.5Zm82.4,2.56c15.37,72.47,75.72,132.79,134.69,134.63s94.34-55.52,79-128-75.72-132.78-134.68-134.61S3286.34,480.59,3301.72,553.06Z"/><path class="cls-32" d="M3251.43,352.88c-39.42,39.54-52.77,129-37.18,202.48,21.28,100.32,96.11,189.93,175.51,224.77l28.95-100.52c-50.27-14.85-96.8-68.21-110-130.57-10.16-47.89,2.92-78.82,29.27-100.78Z"/><path class="cls-33" d="M3781.52,432.3c.13-20.78,15-32.66,33.22-26.53L4241.2,549.44c18.21,6.13,32.89,28,32.77,48.75l-3,504.87c-.12,20.76-15,32.66-33.21,26.52L3811.32,985.91c-18.2-6.13-32.89-28-32.77-48.75Z"/><polygon class="cls-32" points="4241.39 1067.36 4217.86 1059.43 4217.7 1086.28 4241.23 1094.21 4241.39 1067.36"/><polygon class="cls-34" points="4198.56 1052.93 4175.03 1045.01 4174.87 1071.85 4198.4 1079.78 4198.56 1052.93"/><path class="cls-25" d="M4114.2,605.23c-93.11-93.06-213-96.79-267.61-8.32s-23.32,235.84,69.78,328.9,213,96.79,267.6,8.32S4207.3,698.29,4114.2,605.23ZM4071.13,675c-52.57-52.54-120.27-54.64-151.09-4.7s-13.16,133.15,39.4,185.69,120.26,54.64,151.08,4.7S4123.69,727.56,4071.13,675Z"/><path class="cls-32" d="M4220.25,813.32c-4.6-70.52-53.21-163.68-106.51-217-72.77-72.73-165.87-88.83-227.4-51.06l47.6,116.9c34.5-30.49,90.93-22.62,136.16,22.59,34.74,34.72,47.28,74.34,47.6,117.4Z"/><path class="cls-25" d="M4416.87,544.14l0-4.76c.17-29.71-20.82-60.95-46.87-69.73L3083.24,36.15c-26-8.77-47.31,8.23-47.48,37.94l0,4.76Z"/><ellipse class="cls-17" cx="4280.21" cy="468.34" rx="7.64" ry="10.55" transform="translate(362.29 2254.25) rotate(-30.75)"/><ellipse class="cls-17" cx="4323.36" cy="482.87" rx="7.64" ry="10.55" transform="translate(360.93 2278.35) rotate(-30.75)"/><ellipse class="cls-17" cx="4366.5" cy="497.41" rx="7.64" ry="10.55" transform="translate(359.56 2302.45) rotate(-30.75)"/><path class="cls-14" d="M2401.26,251.4l-15.94,916.25c-.21,11.69,5.84,24,14.63,29.79s15.29.53,22.48-5.3c53.29-43.18,104.54-84.4,138.66-109,26.38-19,50.39-18.37,79.35-8.51l1357.24,462.2c9.19,3.13-22.82,38.41-14.42,36.82s57.21-40.06,63.86-46.18c13.28-12.26,21-32.39,21.38-56L4079.7,828c.41-23.3-6.42-48.1-19-68.94s-29.8-36-47.95-42.22L2467.22,190.54c-17.12-5.83-33.68-2.69-46,8.72-5.41,5-48.81,32.75-52.11,40.2C2364.84,249.05,2401.47,239,2401.26,251.4Z"/><path class="cls-35" d="M2351.83,288.8l-15.95,916.26c-.2,11.68,5.84,24,14.64,29.79s15.29.52,22.48-5.31c53.29-43.18,104.53-84.4,138.66-109,26.38-19,50.39-18.37,79.35-8.51l1357.24,462.2c18.38,6.26,36.15,2.89,49.44-9.36s21-32.39,21.38-56l11.2-643.49c.41-23.3-6.42-48.1-19-68.94s-29.8-36-47.95-42.22L2417.78,227.94c-17.11-5.83-33.67-2.69-46,8.72S2352.21,266.83,2351.83,288.8Z"/><path class="cls-25" d="M3988,891.49c.78-45.15-26.31-91.24-60.48-102.88L2462.66,289.76c-34.17-11.63-62.55,15.57-63.33,60.72l-9.56,549.31c-.79,45.14,26.32,91.24,60.49,102.88l1464.85,498.84c34.17,11.64,62.54-15.57,63.32-60.72Z"/><path class="cls-17" d="M2755.38,878.26l-.91,59.69L2549.8,872.22q3.84-32.78,20.93-57.74t66.88-59.3q40.09-27.81,49.25-39.34a58.33,58.33,0,0,0,12.65-35.47q.33-21.5-10-36.41T2660.7,623.1q-18.27-5.88-29.27,2.78t-13.07,36.25L2560.27,637q6-51.39,33.79-65.68t68.91-1.08q45.09,14.47,70.45,49.51t24.76,74.83q-.34,22.64-8,40.74t-24,35.37q-10.83,11.46-38.88,30.49T2651.65,827a72.15,72.15,0,0,0-12.22,14Z"/><path class="cls-17" d="M2943.35,998.6,2885,979.85l3.69-242.19q-32.51,22.67-76.17,24.49l.88-58.31q23-.9,50.15-15.27t37.59-41.82L2948.48,662Z"/><polygon class="cls-17" points="3044.07 966.37 3102.46 985.12 3101.48 1049.38 3043.09 1030.63 3044.07 966.37"/><path class="cls-17" d="M3298.26,1112.57l-58.4-18.75,3.69-242.19q-32.51,22.67-76.17,24.49l.89-58.32q23-.88,50.14-15.26T3256,760.72l47.38,15.21Z"/><path class="cls-17" d="M3365.73,912.28,3368,765.57l25.56,8.21-1.19,77.85,30.48-27.82,31.46,10.1-33.59,28.23L3455,941l-27.55-8.85-23.55-55.53-12.12,9.89-.52,34Z"/><path class="cls-17" d="M3467.73,952.07l29.13,13.28q.64,5.83,3.25,8.78,3.58,4.17,11.41,6.69,10,3.21,15.05,1.51,3.41-1.12,5.2-5.47c.83-2.08,1.28-6.26,1.38-12.53l.24-15.51q-11.73,13.53-29.18,7.93-19.46-6.25-30.55-28-8.7-17.16-8.37-38.48.4-26.73,12.31-37.08t29.26-4.78q17.92,5.75,29.29,26.8l.23-14.91,23.91,7.68-1.45,95.37q-.28,18.81-3.25,27.21t-8.13,12.08q-5.17,3.66-13.72,3.94t-21.55-3.91q-24.55-7.87-34.68-20.44t-9.92-26.76C3467.6,954.51,3467.65,953.39,3467.73,952.07Zm23.78-55q-.27,16.91,5.57,26.68t14.57,12.57q9.36,3,15.94-3t6.82-21.79q.26-16.51-5.81-26.51t-15.52-13q-9.18-3-15.26,3T3491.51,897.06Z"/><path class="cls-17" d="M3570.27,980.48l35.32-141.12,19.18,6.17-35.68,141Z"/><path class="cls-17" d="M3635.39,892.08l23.55,7.56-.22,14.51q12.9-12.85,30.36-7.25a41.41,41.41,0,0,1,16,9.37,48,48,0,0,1,11,16.3,30.2,30.2,0,0,1,13.93-8.3,28.57,28.57,0,0,1,15.79.85,44.82,44.82,0,0,1,17.93,10.54,43.29,43.29,0,0,1,10.79,17.49q2.53,7.65,2.3,22.86l-1,68-25.55-8.2.93-60.75q.24-15.81-2.33-21.26a17.62,17.62,0,0,0-10.82-9.51,14,14,0,0,0-10.15.36q-4.78,2.08-7,8.37t-2.43,21.3l-.77,51-25.55-8.2.89-58.24q.23-15.51-1.06-20.46a19,19,0,0,0-4.13-8.06,17.46,17.46,0,0,0-7.74-4.7,15.18,15.18,0,0,0-10.69.09q-4.78,2-6.93,7.93t-2.38,21.26l-.78,51.64-25.55-8.21Z"/><path class="cls-17" d="M3824.45,977.76l-.16,10.61-36.39-11.69a22.35,22.35,0,0,1,3.72-10.26q3-4.44,11.89-10.55,7.13-4.93,8.76-7a10.34,10.34,0,0,0,2.24-6.31,10.82,10.82,0,0,0-1.77-6.47,9.6,9.6,0,0,0-5.12-3.71q-3.26-1-5.21.49c-1.3,1-2.08,3.18-2.32,6.45l-10.33-4.46q1.06-9.14,6-11.68T3808,923a24,24,0,0,1,12.52,8.8,21.64,21.64,0,0,1,4.4,13.31,19.14,19.14,0,0,1-1.42,7.24,21.5,21.5,0,0,1-4.28,6.29,44.68,44.68,0,0,1-6.91,5.42,71.79,71.79,0,0,0-6.32,4.59,12.72,12.72,0,0,0-2.18,2.49Z"/><path class="cls-36" d="M2419.28,298.07a44.79,44.79,0,0,1,24.87,1.62L3909,798.53c34.16,11.64,61.27,57.74,60.49,102.89l-9.56,549.3c-.41,23.11-8,41.51-20,52.42,22.1-5.18,37.9-28.81,38.47-62.35l9.56-549.3c.79-45.14-26.31-91.25-60.48-102.88L2462.65,289.77C2446,284.08,2430.68,287.66,2419.28,298.07Z"/><path class="cls-37" d="M863.61,187.58c126.57-79.9,304.34,1.77,418.54,183.83,76.41,121.83,103.93,267.2,57.22,385.42-23.09,58.47-85.6,123.34-127.47,149.78-14.4,9.09,18.15-44.47,2.19-39.5-124.34,38.68-289.37-44.83-390.57-206.18C728.36,509.2,668.9,394.26,741.83,294.57,756.41,274.64,842.52,200.89,863.61,187.58Z"/><ellipse class="cls-38" cx="992.75" cy="586.86" rx="271.18" ry="389.41" transform="translate(-160.17 614.05) rotate(-31.94)"/><ellipse class="cls-39" cx="992.75" cy="586.86" rx="271.18" ry="389.41" transform="translate(-160.17 614.05) rotate(-31.94)"/><path class="cls-40" d="M854.8,842.13l75.35-272.49,81.59,56.77L943.38,906.17A451.64,451.64,0,0,1,854.8,842.13Z"/><path class="cls-23" d="M931.85,507.65,214.45,1022l83.72,117.52,717.4-514.34C1023.38,550.11,994.19,512,931.85,507.65Z"/><path class="cls-37" d="M99.12,662.39c134.26-84.76,322.86,1.88,444,195,81.06,129.24,110.25,283.46,60.7,408.87-24.5,62-90.81,130.85-135.23,158.89-15.28,9.65,19.25-47.18,2.32-41.9-131.9,41-307-47.56-414.34-218.73-100.95-161-164-282.9-86.66-388.65C-14.61,754.75,76.74,676.52,99.12,662.39Z"/><ellipse class="cls-38" cx="236.11" cy="1085.97" rx="287.68" ry="413.11" transform="matrix(0.85, -0.53, 0.53, 0.85, -538.77, 289.33)"/><ellipse class="cls-41" cx="236.11" cy="1085.97" rx="287.68" ry="413.11" transform="matrix(0.85, -0.53, 0.53, 0.85, -538.77, 289.33)"/><path class="cls-37" d="M101.53,855.93c85.63-54.06,205.92,1.2,283.19,124.39,51.71,82.44,70.32,180.8,38.72,260.79-15.63,39.56-57.92,83.45-86.25,101.34-9.75,6.15,12.28-30.09,1.48-26.73-84.13,26.18-195.8-30.33-264.27-139.51C10,1073.55-30.22,995.78,19.12,928.33,29,914.84,87.25,864.94,101.53,855.93Z"/><ellipse class="cls-42" cx="188.9" cy="1126.1" rx="183.49" ry="263.49" transform="translate(-567.15 270.43) rotate(-31.94)"/><path class="cls-25" d="M212.61,1034c8-12.39,25.39-11.75,38.79,1.44l.56.55c13.41,13.19,17.77,33.93,9.75,46.32h0c-5.31,8.21-5.48,20.44-.46,32.09s14.5,21,24.83,24.42h0c15.61,5.23,28.08,23.51,27.83,40.84v.73c-.24,17.32-6.69,13.06-21.18,25.65A193.25,193.25,0,0,1,270,1222.71c-10.34-3.46-4.74-21-10.05-12.76s-5.48,20.43-.45,32.09h0c7.59,17.62,2.69,35.26-11,39.4l-.57.17c-3.51,1.06-30.42,23.68-34.17,22.9-10.86-2.27,1.35-34.21-4.3-47.3h0c-5-11.66-14.48-21-24.82-24.43s-20-.53-25.27,7.67h0c-8,12.39-25.39,11.75-38.8-1.44l-.56-.55c-13.41-13.19-17.77-33.93-9.74-46.32h0c5.3-8.2,5.48-20.43.45-32.09s-14.49-21-24.82-24.42h0c-15.62-5.22-36.28-8.34-36-25.67v-.73c.06-4.15-22.87-2.87-21.5-6,4.35-10.11,46.54-35,58.41-31h0c10.34,3.46,20,.54,25.28-7.67s5.48-20.42.45-32.08h0c-5.37-12.46-35.72-3.58-29.92-11.28,2.4-3.19,36.88-26.91,40.88-28.12l.57-.18c13.65-4.13,30.88,6.79,38.47,24.4h0c5,11.65,14.49,21,24.82,24.42s20,.53,25.28-7.66Z"/><path class="cls-43" d="M212.61,1034c8-12.39,25.39-11.75,38.79,1.44l.56.55c13.41,13.19,17.77,33.93,9.75,46.32h0c-5.31,8.21-5.48,20.44-.46,32.09s14.5,21,24.83,24.42h0c15.61,5.23,28.08,23.51,27.83,40.84v.73c-.24,17.32-6.69,13.06-21.18,25.65A193.25,193.25,0,0,1,270,1222.71c-10.34-3.46-4.74-21-10.05-12.76s-5.48,20.43-.45,32.09h0c7.59,17.62,2.69,35.26-11,39.4l-.57.17c-3.51,1.06-30.42,23.68-34.17,22.9-10.86-2.27,1.35-34.21-4.3-47.3h0c-5-11.66-14.48-21-24.82-24.43s-20-.53-25.27,7.67h0c-8,12.39-25.39,11.75-38.8-1.44l-.56-.55c-13.41-13.19-17.77-33.93-9.74-46.32h0c5.3-8.2,5.48-20.43.45-32.09s-14.49-21-24.82-24.42h0c-15.62-5.22-36.28-8.34-36-25.67v-.73c.06-4.15-22.87-2.87-21.5-6,4.35-10.11,46.54-35,58.41-31h0c10.34,3.46,20,.54,25.28-7.67s5.48-20.42.45-32.08h0c-5.37-12.46-35.72-3.58-29.92-11.28,2.4-3.19,36.88-26.91,40.88-28.12l.57-.18c13.65-4.13,30.88,6.79,38.47,24.4h0c5,11.65,14.49,21,24.82,24.42s20,.53,25.28-7.66Z"/><path class="cls-23" d="M176.53,1057.7c8-12.39,25.39-11.75,38.8,1.44l.56.55c13.41,13.19,17.76,33.92,9.74,46.32h0c-5.3,8.2-5.48,20.44-.45,32.09s14.49,21,24.82,24.42h0c15.62,5.22,28.08,23.51,27.84,40.83v.73c-.25,17.33-13.11,27.14-28.72,21.92h0c-10.34-3.46-20-.53-25.28,7.67s-5.48,20.43-.46,32.08h0c7.6,17.62,2.7,35.27-11,39.4l-.57.18c-13.65,4.14-30.88-6.79-38.47-24.4h0c-5-11.66-14.49-21-24.83-24.43s-20-.53-25.27,7.67h0c-8,12.39-25.39,11.75-38.79-1.44l-.57-.55c-13.4-13.19-17.76-33.93-9.74-46.32h0c5.31-8.2,5.48-20.43.46-32.09s-14.5-21-24.83-24.42h0c-15.61-5.23-28.08-23.51-27.83-40.83v-.74c.24-17.32,13.1-27.14,28.72-21.91h0c10.33,3.45,20,.53,25.28-7.67s5.48-20.43.45-32.09h0c-7.6-17.62-2.69-35.26,11-39.4l.58-.17c13.65-4.14,30.87,6.79,38.47,24.4h0c5,11.65,14.48,21,24.82,24.42s20,.53,25.27-7.67Z"/><path class="cls-27" d="M111.12,1114.51,4.83,1190.71,63,1272.37l106.29-76.21C171.09,1153.08,153.88,1124.23,111.12,1114.51Z"/><ellipse class="cls-28" cx="37.66" cy="1228.21" rx="35.88" ry="51.53" transform="translate(-644.06 205.88) rotate(-31.94)"/><ellipse class="cls-44" cx="37.66" cy="1228.21" rx="35.88" ry="51.53" transform="translate(-644.06 205.88) rotate(-31.94)"/><path class="cls-30" d="M56.81,1152.7a25.49,25.49,0,0,1,3-2.21c16.75-10.58,42.37,0,57.17,23.6s13.22,51.35-3.53,61.93c-.23.14-.46.29-.7.42,13.88-11.86,14.38-37.6.52-59.7C98.67,1153.46,73.56,1142.86,56.81,1152.7Z"/><path class="cls-30" d="M35.58,1168.76a26.47,26.47,0,0,1,3-2.21c16.74-10.58,42.37,0,57.17,23.6s13.22,51.35-3.53,61.93l-.7.42c13.88-11.86,14.38-37.6.52-59.7C77.45,1169.52,52.34,1158.92,35.58,1168.76Z"/><path class="cls-30" d="M81.4,1136.16a26.47,26.47,0,0,1,3-2.21c16.74-10.58,42.36,0,57.17,23.6s13.22,51.36-3.53,61.93l-.7.42c13.88-11.86,14.38-37.6.51-59.7C123.27,1136.92,98.16,1126.32,81.4,1136.16Z"/><path class="cls-23" d="M4989.74,1583.06,4272.35,2097.4l83.71,117.52,717.4-514.34C5081.27,1625.52,5052.08,1587.42,4989.74,1583.06Z"/><path class="cls-37" d="M4157,1737.81c134.27-84.76,322.86,1.87,444,195,81.06,129.25,110.25,283.46,60.71,408.88-24.51,62-90.81,130.84-135.24,158.89-15.27,9.64,19.26-47.18,2.32-41.91-131.9,41-307-47.56-414.33-218.73-101-161-164-282.9-86.67-388.65C4043.28,1830.17,4134.64,1751.93,4157,1737.81Z"/><ellipse class="cls-38" cx="4294" cy="2161.38" rx="287.68" ry="413.11" transform="translate(-493.33 2598.94) rotate(-31.94)"/><ellipse class="cls-45" cx="4294" cy="2161.38" rx="287.68" ry="413.11" transform="translate(-493.33 2598.94) rotate(-31.94)"/><path class="cls-37" d="M4159.42,1931.35c85.64-54.06,205.93,1.19,283.2,124.39,51.7,82.43,70.32,180.79,38.71,260.78-15.62,39.56-57.91,83.46-86.25,101.35-9.74,6.15,12.28-30.1,1.48-26.73-84.13,26.17-195.79-30.33-264.27-139.51C4067.9,2149,4027.67,2071.19,4077,2003.75,4086.88,1990.26,4145.15,1940.36,4159.42,1931.35Z"/><ellipse class="cls-42" cx="4246.8" cy="2201.51" rx="183.49" ry="263.49" transform="translate(-521.71 2580.04) rotate(-31.94)"/><path class="cls-25" d="M4270.5,2109.39c8-12.39,25.39-11.74,38.79,1.44l.57.56c13.4,13.18,17.76,33.92,9.74,46.32h0c-5.31,8.2-5.48,20.43-.45,32.09s14.49,21,24.82,24.42h0c15.62,5.22,28.08,23.5,27.84,40.83v.73c-.25,17.33-6.7,13.06-21.18,25.65a192.89,192.89,0,0,1-22.78,16.69c-10.33-3.45-4.74-20.95-10-12.76s-5.48,20.44-.46,32.09h0c7.6,17.62,2.7,35.26-10.95,39.4l-.58.17c-3.51,1.07-30.41,23.69-34.17,22.9-10.85-2.26,1.35-34.21-4.29-47.3h0c-5-11.66-14.49-21-24.83-24.42s-20-.53-25.27,7.67h0c-8,12.39-25.39,11.75-38.79-1.44l-.57-.55c-13.4-13.19-17.76-33.93-9.74-46.32h0c5.31-8.2,5.48-20.43.45-32.09s-14.49-21-24.82-24.43h0c-15.61-5.22-36.27-8.34-36-25.66v-.74c.06-4.15-22.87-2.86-21.5-6,4.36-10.11,46.54-35,58.42-31h0c10.33,3.46,20,.54,25.28-7.66s5.47-20.43.45-32.09h0c-5.38-12.46-35.72-3.57-29.93-11.27,2.41-3.2,36.88-26.92,40.88-28.13l.58-.17c13.65-4.14,30.87,6.79,38.47,24.4h0c5,11.65,14.48,21,24.81,24.42s20,.53,25.28-7.67Z"/><path class="cls-46" d="M4270.5,2109.39c8-12.39,25.39-11.74,38.79,1.44l.57.56c13.4,13.18,17.76,33.92,9.74,46.32h0c-5.31,8.2-5.48,20.43-.45,32.09s14.49,21,24.82,24.42h0c15.62,5.22,28.08,23.5,27.84,40.83v.73c-.25,17.33-6.7,13.06-21.18,25.65a192.89,192.89,0,0,1-22.78,16.69c-10.33-3.45-4.74-20.95-10-12.76s-5.48,20.44-.46,32.09h0c7.6,17.62,2.7,35.26-10.95,39.4l-.58.17c-3.51,1.07-30.41,23.69-34.17,22.9-10.85-2.26,1.35-34.21-4.29-47.3h0c-5-11.66-14.49-21-24.83-24.42s-20-.53-25.27,7.67h0c-8,12.39-25.39,11.75-38.79-1.44l-.57-.55c-13.4-13.19-17.76-33.93-9.74-46.32h0c5.31-8.2,5.48-20.43.45-32.09s-14.49-21-24.82-24.43h0c-15.61-5.22-36.27-8.34-36-25.66v-.74c.06-4.15-22.87-2.86-21.5-6,4.36-10.11,46.54-35,58.42-31h0c10.33,3.46,20,.54,25.28-7.66s5.47-20.43.45-32.09h0c-5.38-12.46-35.72-3.57-29.93-11.27,2.41-3.2,36.88-26.92,40.88-28.13l.58-.17c13.65-4.14,30.87,6.79,38.47,24.4h0c5,11.65,14.48,21,24.81,24.42s20,.53,25.28-7.67Z"/><path class="cls-23" d="M4234.43,2133.11c8-12.39,25.39-11.75,38.79,1.44.19.18.37.37.57.55,13.4,13.19,17.76,33.93,9.74,46.32h0c-5.31,8.21-5.48,20.44-.46,32.09s14.5,21,24.83,24.43h0c15.61,5.22,28.08,23.5,27.83,40.83v.73c-.24,17.32-13.1,27.14-28.72,21.92h0c-10.33-3.46-20-.54-25.28,7.66s-5.48,20.44-.45,32.09h0c7.59,17.62,2.69,35.26-11,39.4l-.58.17c-13.65,4.14-30.87-6.79-38.47-24.4h0c-5-11.66-14.48-21-24.82-24.43s-20-.53-25.27,7.68h0c-8,12.39-25.39,11.74-38.8-1.44-.18-.19-.37-.38-.56-.56-13.41-13.18-17.77-33.92-9.74-46.32h0c5.3-8.2,5.48-20.43.45-32.09s-14.49-21-24.82-24.42h0c-15.62-5.22-28.08-23.51-27.84-40.83v-.73c.25-17.33,13.11-27.14,28.72-21.92h0c10.34,3.46,20,.54,25.28-7.66s5.48-20.43.46-32.09h0c-7.61-17.62-2.7-35.26,10.95-39.4l.57-.17c13.65-4.14,30.88,6.78,38.47,24.4h0c5,11.66,14.49,21,24.82,24.42s20,.53,25.28-7.66Z"/><path class="cls-27" d="M4169,2189.92l-106.28,76.21,58.16,81.65,106.29-76.2C4229,2228.5,4211.78,2199.65,4169,2189.92Z"/><ellipse class="cls-28" cx="4095.55" cy="2303.62" rx="35.88" ry="51.53" transform="matrix(0.85, -0.53, 0.53, 0.85, -598.63, 2515.47)"/><ellipse class="cls-47" cx="4095.55" cy="2303.62" rx="35.88" ry="51.53" transform="matrix(0.85, -0.53, 0.53, 0.85, -598.63, 2515.47)"/><path class="cls-30" d="M4114.7,2228.12a25.28,25.28,0,0,1,3-2.22c16.75-10.57,42.37,0,57.17,23.61s13.22,51.35-3.52,61.92l-.7.43c13.87-11.87,14.38-37.6.51-59.7C4156.57,2228.88,4131.46,2218.27,4114.7,2228.12Z"/><path class="cls-30" d="M4093.48,2244.18a25.28,25.28,0,0,1,3-2.22c16.75-10.57,42.37,0,57.17,23.61s13.22,51.35-3.53,61.92l-.69.43c13.87-11.87,14.38-37.6.51-59.7C4135.34,2244.94,4110.24,2234.33,4093.48,2244.18Z"/><path class="cls-30" d="M4139.3,2211.58a26.43,26.43,0,0,1,3-2.22c16.75-10.57,42.37,0,57.17,23.61s13.22,51.35-3.53,61.92l-.69.43c13.87-11.87,14.38-37.6.51-59.7C4181.16,2212.34,4156.06,2201.74,4139.3,2211.58Z"/></g></svg>